<svg xmlns="http://www.w3.org/2000/svg" xmlns:xlink="http://www.w3.org/1999/xlink" width="32" height="32" viewBox="0 0 32 32" fill="none"><g opacity="1" transform="translate(0 0)  rotate(0 16.000000000000004 15.999999999999998)"><path id="矩形 1" fill-rule="evenodd" style="fill:#FFFFFF" transform="translate(0 0)  rotate(0 16.000000000000004 15.999999999999998)" opacity="1" d="M0,32L32,32L32,0L0,0L0,32Z " /><g opacity="1" transform="translate(6.999999999999943 8.736240150093842)  rotate(0 9 7.263759849906054)"><path id="路径 1" fill-rule="evenodd" style="fill:#4E9FFE" transform="translate(6.000000000000056 2.259836397748543)  rotate(0 5.999999999999937 6.133841651031824)" opacity="1" d="M0,7.98C0,8.16 0.16,8.35 0.35,8.44C0.62,8.53 0.69,8.99 0.69,10.42C0.69,11.44 0.74,12.27 0.81,12.27C0.88,12.27 2.28,11.81 3.97,11.25C5.65,10.68 8.03,10.05 9.23,9.85C10.43,9.62 11.56,9.41 11.72,9.36C11.93,9.29 12,8.16 12,4.63L12,0L10.68,0.16C9.95,0.23 8.52,0.51 7.5,0.76C6.48,1.01 5.38,1.15 5.05,1.08L4.45,0.95L4.57,4.77C4.64,6.87 4.64,8.58 4.57,8.58C4.5,8.58 3.85,8.37 3.12,8.12C1.52,7.56 0,7.49 0,7.98Z " /><path id="路径 2" fill-rule="evenodd" style="fill:#00C358" transform="translate(0 0)  rotate(0 5.630769230769173 5.330276082079722)" opacity="1" d="M6.85,10.65C7.04,10.58 7.15,9.87 7.2,8.58L7.27,6.57L8.42,5.81C9.07,5.4 9.95,4.96 10.41,4.82C11.08,4.61 11.26,4.45 11.26,3.99C11.26,3.25 9.62,2.31 6.76,1.38C4.89,0.78 1.25,0 0.32,0C0.07,0 0,0.88 0,4.7L0,9.41L1.22,9.55C1.87,9.64 3.35,9.94 4.5,10.22C5.65,10.52 6.69,10.7 6.85,10.65Z " /><path id="路径 3" fill-rule="evenodd" style="fill:#348AC4" transform="translate(6.490201741238607 3.505052372017881)  rotate(0 2.3972068216883966 4.1860358053207785)" opacity="1" d="M2.51,7.77C3.46,8.14 4.36,8.39 4.47,8.37C4.61,8.35 4.73,6.73 4.75,4.17L4.79,0L3.43,0.53C2.67,0.83 1.61,1.36 1.08,1.73L0.09,2.4L0.02,4.84C-0.03,7.1 -0.01,7.29 0.36,7.22C0.59,7.15 1.56,7.43 2.51,7.77Z " /></g></g></svg>