<?xml version="1.0" encoding="UTF-8"?>
<svg width="128px" height="128px" viewBox="0 0 128 128" version="1.1" xmlns="http://www.w3.org/2000/svg" xmlns:xlink="http://www.w3.org/1999/xlink">
    <title>石墨备份 3</title>
    <g id="石墨备份-3" stroke="none" stroke-width="1" fill="none" fill-rule="evenodd">
        <g id="编组" transform="translate(30.000000, 30.000000)">
            <path d="M1.36229205,13.5115695 L0,11.7495977 L2.7245841,10.113481 C2.00247482,11.1151277 1.53456451,12.2822788 1.36229205,13.5115695 Z M13.2513863,34.5293763 L11.0221811,34.5293763 L11.3937153,36.165493 L13.6229205,35.5362174 C13.3752311,35.2845071 13.2513863,34.9069417 13.2513863,34.5293763 Z M12.3844732,49.631992 L12.012939,50.1354125 L11.8890943,51.3939638 L12.2606285,51.2681087 L14.1182994,50.7646882 L14.2421442,48.1217304 L12.3844732,49.631992 Z M57.2162662,4.07243474 C41.590619,-2.09481741 24.1224579,-1.22553188 9.16451017,6.46368222 C10.4029575,6.58953735 11.6414048,6.84124761 12.7560074,7.34466813 C14.4898336,6.58953735 16.2236599,5.83440656 18.0813309,5.33098604 C23.7781885,3.44315908 29.7227357,2.43631804 35.7911275,2.31046291 C41.9833641,2.31046291 48.1756007,3.44315908 54.1201479,5.45684117 C50.0621345,13.9252305 47.2656936,22.9597245 45.8225508,32.263984 C44.6890353,40.8929019 45.493512,49.6706565 48.1756007,57.9384306 C41.3525704,62.2170351 33.5277284,64.5634869 25.5120148,64.7346077 C21.2149999,64.7221016 16.9485872,63.9994899 12.8798521,62.5950704 C12.012939,62.9726358 11.0221811,63.098491 10.155268,63.098491 L9.90757856,63.8536217 C14.8613678,65.8673038 20.1866913,66.8741449 25.5120148,67 C34.3049908,67 42.8502773,63.9794769 51.0240296,58.9452716 C44.336414,41.954829 47.8040665,23.7058351 57.2162662,4.07243474 L57.2162662,4.07243474 Z M7.67837338,21.9438633 L6.31608133,19.3009055 L5.69685767,20.4336017 L6.56377079,22.0697184 L7.67837338,21.9438633 L7.67837338,21.9438633 Z" id="形状" fill="#E17926" fill-rule="nonzero"></path>
            <path d="M46.9371534,32.263984 C48.4232902,22.6989941 51.3955638,13.3857144 55.6062847,4.70171039 C41.1094749,-0.712495622 25.0745202,0.0591459146 11.1460259,6.84124761 C13.7467652,7.47052326 15.9759704,8.8549297 17.8336414,10.7427567 L18.2051756,11.120322 C18.948244,11.7495977 19.3197782,12.8822939 18.8243993,13.7632798 C18.2641295,15.4946004 17.0656759,16.9380473 15.4805915,17.790644 C13.6229205,18.6716299 11.3937153,18.797485 9.53604436,18.1682094 C8.9168207,18.0423542 8.29759704,17.9164991 7.80221811,18.0423542 C7.18299445,18.1682094 6.68761553,18.6716299 6.43992606,19.1750504 L7.80221811,21.8180081 L10.5268022,21.692153 C12.8798521,21.5662979 15.1090573,21.5662979 17.3382625,21.8180081 C18.3290203,21.9438633 19.4436229,22.1955735 20.4343808,22.5731389 L21.5489834,23.2024146 C21.9205176,23.57998 22.168207,24.0834005 22.2920518,24.4609659 C23.7781885,28.6141852 20.805915,32.263984 17.090573,33.5225353 C15.6044362,34.0259558 14.1182994,34.2776661 12.6321627,34.4035212 L12.1367837,34.4035212 L12.3844732,35.7879276 L14.9852126,35.0327968 L18.7005545,34.2776661 C19.6913124,34.1518109 21.1774492,33.9001007 21.9205176,34.5293763 C22.2920518,34.9069417 22.663586,35.4103622 22.7874307,36.0396379 L23.9020333,38.8084508 C24.1497227,39.5635815 24.2735675,40.4445675 24.1497227,41.1996982 C23.9020333,42.5841047 23.0351201,43.7168009 21.7966728,44.3460765 C19.5674677,45.6046278 17.3382625,46.6114689 14.9852126,47.6183099 L13.2513863,48.6251509 L13.1275416,50.7646882 C15.8521257,50.0095574 18.7005545,49.8837022 21.4251386,50.3871228 L22.9112754,50.8905433 C23.6543438,51.3939638 24.1497227,52.4008049 24.1497227,53.4076459 C24.1497227,54.4144869 23.7781885,55.2954729 23.2828096,56.1764588 C21.912107,58.4275728 19.8088306,60.1196964 17.3382625,60.9589537 L13.87061,61.9657948 C13.0036969,62.217505 12.2606285,62.5950704 11.3937153,62.7209256 L11.3937153,62.8467807 C15.9759704,64.6087525 20.805915,65.4897384 25.6358595,65.4897384 C34.1686518,65.3365239 42.4897921,62.7647871 49.6617375,58.0642857 C46.5277732,49.8595248 45.5877157,40.9577011 46.9371534,32.263984 L46.9371534,32.263984 Z" id="路径" fill="#F78F20" fill-rule="nonzero"></path>
            <path d="M32.4473198,24.2092556 C34.181146,23.9575454 35.7911275,21.692153 36.2865065,18.9233401 C36.7818854,16.1545273 35.1719039,13.8891349 32.5711645,14.1408452 C29.9704251,14.3925554 28.4842884,17.0355132 28.8558226,19.8043261 C29.2273567,22.5731389 30.8373383,24.4609659 32.4473198,24.2092556 Z" id="路径" fill="#FDCDA0" fill-rule="nonzero"></path>
            <path d="M41.3641405,39.1860162 C36.6580407,36.0396379 34.4288355,30.8795775 30.7134935,25.4678069 C27.245841,31.8864186 25.7597043,38.6825956 21.3012939,43.7168009 C28.7319778,44.2202214 35.2957486,42.0806842 41.3641405,39.1860162 L41.3641405,39.1860162 Z" id="路径" fill="#E17827" fill-rule="nonzero"></path>
            <path d="M35.6672828,48.3734407 C29.5988909,42.7099598 27.245841,34.1518109 18.2051756,29.1176057 C19.5674677,37.0464789 19.8151571,43.842656 14.8613678,49.631992 C21.7727784,51.2384632 28.992202,50.8017598 35.6672828,48.3734407 Z" id="路径" fill="#C86228" fill-rule="nonzero"></path>
            <path d="M43.0979667,41.7031188 C33.9793732,46.305238 23.7099705,48.0153566 13.6229205,46.6114689 C15.3567468,36.4172033 13.87061,26.6005031 7.05914972,17.5389337 C19.5393412,11.205865 33.6583133,9.00522561 47.4325323,11.2461772 C42.4787431,22.0697184 40.2495379,32.263984 43.0979667,41.7031188 L43.0979667,41.7031188 Z" id="路径" stroke="#E17827" stroke-width="11.2"></path>
            <path d="M19.8151571,12.2530182 L19.6913124,11.8754528 L19.5674677,11.6237426 L18.7005545,11.3720323 L18.3290203,11.3720323 L18.2051756,11.120322 C15.898704,8.68425925 12.8376468,7.12888523 9.53604436,6.71539248 C8.7566728,6.58838671 7.96236602,6.58838671 7.18299445,6.71539248 C3.83918669,7.59637839 1.11460259,12.1271631 1.48613678,15.5252516 C1.85767098,17.790644 3.4676525,19.0491953 5.07763401,20.5594568 L5.57301294,20.685312 C6.06839187,20.8111671 6.31608133,19.8043261 6.56377079,19.4267607 C6.81146026,18.797485 7.30683919,18.4199196 7.92606285,18.1682094 L9.78373383,18.2940645 C11.7652495,18.9233401 13.87061,18.797485 15.728281,18.0423542 C16.3475046,17.790644 16.8428835,17.4130786 17.2144177,16.9096581 C17.3382625,16.9096581 17.4621072,16.9096581 17.5859519,16.6579478 L18.5767098,15.7769619 L19.0720887,15.5252516 C19.4436229,15.0218311 19.6913124,14.3925554 19.8151571,13.7632798 L19.8151571,12.2530182 L19.8151571,12.2530182 Z M32.5711645,30.5020121 L32.818854,29.9985916 C34.3049908,26.9780685 36.1626617,24.2092556 38.6395564,21.9438633 C40.8687616,19.5526158 43.0979667,17.5389337 46.0702403,16.9096581 C48.1465288,16.4068256 50.3100331,16.4068256 52.3863216,16.9096581 C53.6247689,16.9096581 54.987061,17.2872234 56.2255083,17.790644 C57.3401109,18.5457747 58.3308688,19.5526158 58.9500924,20.685312 C61.0554529,23.9575454 62.9131238,27.3556339 64.6469501,30.8795775 C65.7615527,33.0191148 67,35.158652 67,37.6757546 C67,39.1860162 66.6284658,40.6962777 66.2569316,42.2065393 C65.0184843,46.1080483 63.5323475,50.0095574 61.6746765,53.7852113 C60.26437,57.4879479 57.8084055,60.6843652 54.6155268,62.9726358 C49.7855823,66.2448692 43.7171904,65.6155936 38.2680222,64.8604628 C37.4011091,64.8604628 29.7227357,63.9794769 29.5988909,63.2243461 C29.5988909,62.8467807 32.0757856,61.9657948 32.323475,61.9657948 C35.6029514,60.4963448 38.4589934,58.2004127 40.6210721,55.2954729 C41.3641405,54.1627767 41.8595194,52.9042254 42.1072089,51.6456741 C42.3548983,49.7578471 43.0979667,47.8700202 44.0887246,46.1080483 C45.2033272,44.4719316 46.5656192,43.3392355 46.5656192,41.1996982 L46.4417745,39.060161 C46.4417745,38.3050302 46.8133087,37.8016097 47.5563771,37.2981892 C48.2994455,37.0464789 48.4232902,37.2981892 48.6709797,36.7947687 L48.7948244,36.2913482 C49.0425139,34.4035212 49.7855823,32.6415494 50.7763401,31.0054327 C48.9343369,33.9754485 46.1317061,36.2005473 42.8502773,37.2981892 C40.8617545,38.1678934 38.6670429,38.4302862 36.5341959,38.05332 C34.3405175,37.6954016 32.5517394,36.0741065 31.9519409,33.9001007 C31.9519409,32.8932596 32.0757856,31.6347083 32.5711645,30.5020121 L32.5711645,30.5020121 Z M23.0351201,26.9780685 L23.0351201,26.6005031 L22.7874307,24.586821 C22.6902809,24.2602173 22.4668062,23.9876943 22.168207,23.8316902 L21.9205176,23.8316902 C21.6728281,23.4541248 21.3012939,23.2024146 20.9297597,23.0765594 C19.9390018,22.6989941 18.948244,22.4472838 17.8336414,22.3214287 C15.6044362,22.0697184 13.2513863,22.0697184 11.0221811,22.3214287 C8.66913124,22.3214287 6.68761553,22.3214287 4.70609982,23.3282697 C2.90491923,24.5865038 1.69496378,26.5447508 1.36229205,28.7400403 C0.990757856,30.6278673 1.36229205,32.6415494 2.47689464,34.2776661 C4.33456562,36.7947687 7.43068392,37.5498995 10.2791128,36.4172033 C10.4029575,36.4172033 10.650647,36.4172033 10.7744917,36.165493 L11.1460259,35.4103622 C11.5175601,34.7810866 12.6321627,35.0327968 13.2513863,35.0327968 C14.7375231,35.0327968 16.2236599,34.6552315 17.7097967,34.1518109 C19.6913124,33.3966801 21.4251386,32.0122737 22.5397412,30.1244468 C22.663586,30.1244468 22.7874307,30.1244468 22.9112754,29.7468814 L23.0351201,29.369316 L23.1589649,27.8590544 L23.0351201,27.1039236 L23.0351201,26.9780685 Z M25.883549,39.5635815 C25.883549,38.4308854 25.5120148,37.5498995 25.1404806,36.7947687 C24.7689464,36.2913482 24.6451017,35.6620725 24.025878,35.5362174 L22.9112754,35.6620725 L22.5397412,35.0327968 C21.7966728,34.2776661 20.310536,34.5293763 19.3197782,34.6552315 C15.5739742,35.035495 11.902652,35.9682249 8.42144177,37.4240443 C6.31608133,38.1791751 4.08687616,38.9343059 2.60073937,40.6962777 C1.84493939,41.4423737 1.25392355,42.3432886 0.866913124,43.3392355 C0.247689464,46.1080483 0.990757856,49.631992 3.71534196,51.0163984 C5.44916821,51.7715292 7.30683919,51.8973843 9.16451017,51.5198189 C10.155268,51.5198189 11.0221811,51.1422536 11.7652495,50.5129779 L12.7560074,49.5061369 C13.4990758,48.7510061 14.3659889,48.2475856 15.232902,47.8700202 C17.5859519,46.9890342 19.9390018,45.9821932 22.168207,44.849497 C23.4066543,44.2202214 24.2735675,43.0875252 24.6451017,41.7031188 L24.7689464,41.1996982 L25.3881701,40.947988 C25.6358595,40.947988 25.883549,40.5704226 26.1312384,40.3187123 C25.883549,40.3187123 26.0073937,39.8152918 25.883549,39.4377264 L25.883549,39.5635815 Z M25.1404806,53.4076459 C25.0166359,52.6525151 24.6451017,51.7715292 23.9020333,51.6456741 L23.4066543,51.6456741 L23.0351201,51.2681087 L21.5489834,50.7646882 C18.5767098,50.2612676 15.4805915,50.3871228 12.5083179,51.2681087 C10.0314233,52.0232395 5.44916821,53.7852113 5.20147874,56.8057344 C5.07763401,58.0642857 5.44916821,59.322837 6.1922366,60.203823 C7.05914972,61.7140845 8.54528651,62.7209256 10.2791128,62.9726358 C11.5175601,62.9726358 12.8798521,62.5950704 13.9944547,62.0916499 C15.232902,61.7140845 16.3475046,61.5882294 17.4621072,61.0848089 C19.7229448,60.3020935 21.6765796,58.8020524 23.0351201,56.8057344 L23.1589649,56.8057344 C23.7781885,56.8057344 24.2735675,56.428169 24.6451017,56.0506036 L25.0166359,55.421328 C25.3881701,54.9179075 25.3881701,54.1627767 25.1404806,53.4076459 L25.1404806,53.4076459 Z" id="形状" fill="#C96328" fill-rule="nonzero" opacity="0.5"></path>
            <path d="M17.9574861,10.8686118 C15.6167726,8.4802902 12.5729196,6.93365791 9.2883549,6.46368222 C8.5054605,6.31269497 7.69827769,6.35586792 6.93530499,6.58953735 C3.59149723,7.47052326 0.866913124,12.001308 1.23844732,15.3993965 C1.60998152,17.5389337 3.0961183,18.9233401 4.70609982,20.1818914 L5.20147874,20.4336017 C5.69685767,20.5594568 5.94454713,19.5526158 6.1922366,19.1750504 C6.56377079,18.6716299 7.05914972,18.1682094 7.55452865,18.0423542 C8.17375231,17.9164991 8.79297597,18.0423542 9.2883549,18.1682094 C11.2698706,18.797485 13.3752311,18.6716299 15.3567468,17.9164991 C16.9680104,17.0973014 18.177087,15.6410598 18.7005545,13.8891349 C18.948244,13.3857144 18.948244,12.8822939 18.8243993,12.3788734 L18.0813309,11.2461772 L17.9574861,10.8686118 L17.9574861,10.8686118 Z" id="路径" fill="#F7DDC4" fill-rule="nonzero"></path>
            <path d="M15.4805915,17.9164991 L16.0998152,17.5389337 C14.1182994,17.2872234 13.3752311,17.5389337 12.8798521,17.4130786 C12.3844732,17.2872234 10.7744917,17.4130786 10.155268,17.1613683 C9.53604436,16.9096581 8.79297597,17.0355132 8.29759704,16.9096581 L6.06839187,16.5320927 C4.95378928,16.4062375 3.96303142,15.902817 3.21996303,16.4062375 L1.98151571,17.2872234 C2.85492058,18.5399803 3.99868051,19.5731597 5.32532348,20.3077466 C5.8207024,20.4336017 6.06839187,19.4267607 6.31608133,19.0491953 C6.68761553,18.5457747 7.18299445,18.0423542 7.67837338,17.9164991 C8.29759704,17.790644 8.9168207,17.9164991 9.41219963,18.0423542 C11.5175601,18.797485 13.6229205,18.6716299 15.4805915,17.9164991 L15.4805915,17.9164991 Z" id="路径" fill="#EACEB1" fill-rule="nonzero"></path>
            <path d="M19.0720887,12.3788734 L18.3290203,11.2461772 L17.9574861,10.8686118 C15.6167726,8.4802902 12.5729196,6.93365791 9.2883549,6.46368222 C8.5054605,6.31269497 7.69827769,6.35586792 6.93530499,6.58953735 C5.17453636,7.62012799 4.12427541,9.56069174 4.21072089,11.6237426 C4.45841035,16.0286721 5.32532348,16.0286721 7.67837338,18.0423542 C8.29759704,17.9164991 8.9168207,18.0423542 9.41219963,18.1682094 C11.3937153,18.797485 13.4990758,18.6716299 15.4805915,17.9164991 C17.0918551,17.0973014 18.3009317,15.6410598 18.8243993,13.8891349 C19.0720887,13.3857144 19.1959335,12.8822939 19.0720887,12.3788734 L19.0720887,12.3788734 Z" id="路径" fill="#F8E9DB" fill-rule="nonzero" opacity="0.3"></path>
            <path d="M19.4436229,11.7495977 C19.0720887,11.4978874 18.8243993,11.3720323 18.4528651,11.3720323 L17.3382625,10.9944669 L15.4805915,10.4910464 C13.9944547,10.113481 12.2606285,9.73591561 10.8983364,10.4910464 C10.1663917,10.8543846 9.65703878,11.5602319 9.53604436,12.3788734 C9.41219963,13.1340041 9.65988909,13.8891349 10.155268,14.3925554 C10.8151139,14.9197563 11.5735421,15.3051263 12.3844732,15.5252516 C13.7467652,16.1545273 15.232902,16.5320927 16.7190388,16.7838029 L17.2144177,16.7838029 L17.4621072,16.5320927 C17.9574861,16.2803824 18.3290203,15.902817 18.7005545,15.3993965 C19.0720887,14.895976 19.3197782,14.2667003 19.4436229,13.6374247 L19.5674677,12.2530182 L19.4436229,11.7495977 L19.4436229,11.7495977 Z" id="路径" fill="#34B9EB" fill-rule="nonzero"></path>
            <path d="M64.5231054,30.7537224 L61.0554529,24.2092556 L60.4362292,23.0765594 L60.1885397,22.6989941 L59.6931608,21.9438633 L59.4454713,21.5662979 L58.702403,20.4336017 C58.0831793,19.1750504 57.0924214,18.1682094 55.9778189,17.5389337 C54.7393715,17.0355132 53.5009242,16.7838029 52.1386322,16.6579478 C50.0332717,16.1545273 47.9279113,16.1545273 45.8225508,16.5320927 C42.8803809,17.4302879 40.2844164,19.2329932 38.3918669,21.692153 C36.038817,24.0834005 34.0573013,26.7263582 32.5711645,29.7468814 L32.323475,30.2503019 C31.8280961,31.3829981 31.7042514,32.6415494 31.9519409,33.7742455 C32.5711645,35.9137828 34.3049908,37.5498995 36.5341959,37.9274648 L39.3826248,37.9274648 C40.6210721,37.8016097 41.8595194,37.4240443 42.974122,36.9206238 C46.194085,35.7879276 49.0425139,33.6483904 50.9001848,30.7537224 L49.5378928,33.3966801 L48.7948244,36.0396379 L48.6709797,36.5430584 C48.4232902,36.9206238 47.9279113,36.9206238 47.5563771,37.0464789 L47.1848429,37.2981892 C46.8133087,44.7236419 48.051756,52.1490946 50.7763401,58.9452716 C47.1278978,61.3236425 43.221598,63.2662673 39.1349353,64.7346077 C44.336414,65.4897384 49.909427,65.7414487 54.4916821,62.7209256 C57.8354898,60.4555332 59.9408503,57.0574447 61.5508318,53.4076459 C63.284658,49.631992 64.7707948,45.8563381 66.0092421,41.8289739 C66.5046211,40.3187123 66.7523105,38.8084508 66.7523105,37.2981892 C66.7523105,35.0327968 65.5138632,32.8932596 64.5231054,30.7537224 L64.5231054,30.7537224 Z" id="路径" fill="#F7DDC4" fill-rule="nonzero"></path>
            <path d="M47.3086876,39.4377264 L47.3086876,42.9616701 L47.4325323,43.9685111 L47.4325323,44.2202214 L47.5563771,45.4787727 L47.9279113,48.1217304 L47.9279113,48.3734407 L48.051756,49.3802817 L48.1756007,49.7578471 L48.2994455,50.638833 L48.4232902,51.1422536 L48.5471349,51.8973843 L48.6709797,52.4008049 L48.9186691,53.1559356 L49.0425139,53.6593562 L49.2902033,54.4144869 L49.4140481,54.9179075 L49.6617375,55.6730383 L49.7855823,56.1764588 L50.0332717,57.0574447 L50.1571165,57.4350101 L50.6524954,58.6935614 L49.2902033,59.5745473 L49.1663586,59.7004024 L48.051756,60.5813883 L47.9279113,60.7072435 L46.689464,61.4623743 L46.5656192,61.5882294 L45.3271719,62.217505 L45.0794824,62.3433602 L43.8410351,62.9726358 L43.7171904,63.098491 L42.4787431,63.7277666 L42.3548983,63.8536217 L40.9926063,64.3570423 L40.8687616,64.3570423 L39.5064695,64.8604628 C44.7079482,65.6155936 50.2809612,65.8673038 54.8632163,62.8467807 C56.2255083,61.9657948 57.4639556,60.7072435 58.4547135,59.4486922 C57.092088,51.682412 53.1595949,44.6222287 47.3086876,39.4377264 L47.3086876,39.4377264 Z M58.0831793,24.3351108 C59.4454713,21.9438633 59.1977819,22.3214287 58.3308688,19.8043261 C57.7479957,18.9364074 56.9876048,18.2066026 56.1016636,17.6647888 C54.0514484,17.1776695 51.9862941,16.7579338 49.909427,16.4062375 C52.1284544,18.1089795 53.4530206,20.7546998 53.5009242,23.57998 C53.5009242,25.7195172 51.6432532,29.1176057 50.7763401,30.8795775 C49.909427,32.6415494 46.194085,40.0670021 51.5194085,33.270825 C53.12939,31.1312878 55.1109057,29.8727365 56.2255083,27.8590544 L58.0831793,24.3351108 L58.0831793,24.3351108 Z" id="形状" fill="#EACEB1" fill-rule="nonzero"></path>
            <path d="M52.2624769,18.0423542 C51.767098,17.5389337 50.7763401,16.4062375 50.0332717,16.1545273 C48.7948244,16.0286721 47.5563771,16.1545273 46.3179298,16.4062375 C43.3456562,17.1613683 40.8687616,19.3009055 38.8872458,21.5662979 C36.5341959,23.9575454 34.5526802,26.6005031 33.0665434,29.6210262 L32.818854,30.1244468 C32.323475,31.2571429 32.1996303,32.5156942 32.4473198,33.6483904 C32.9764605,35.6993374 34.6115187,37.2631967 36.6580407,37.6757546 C41.116451,37.4240443 45.2033272,35.4103622 48.2994455,32.263984 C53.3770795,27.1039236 54.987061,20.8111671 52.2624769,18.0423542 L52.2624769,18.0423542 Z" id="路径" fill="#F8E9DB" fill-rule="nonzero" opacity="0.3"></path>
            <path d="M38.3918669,26.6005031 L37.2772643,27.3556339 L34.676525,29.6210262 C33.8096118,30.376157 32.5711645,31.1312878 32.1996303,32.3898391 C32.0604018,33.0600557 32.103212,33.7561375 32.323475,34.4035212 C32.5711645,35.5362174 33.3142329,36.5430584 34.181146,37.1723341 C35.9149723,38.3050302 37.896488,37.2981892 39.25878,36.165493 C40.6210721,35.0327968 42.2310536,34.1518109 42.974122,32.5156942 C43.7171904,30.8795775 42.7264325,29.4951711 41.8595194,28.3624749 C40.9926063,27.2297788 39.8780037,26.2229377 38.5157116,26.6005031 L38.3918669,26.6005031 L38.3918669,26.6005031 Z" id="路径" fill="#9F87BF" fill-rule="nonzero"></path>
            <path d="M42.2310536,28.6141852 L33.1903882,36.0396379 L34.181146,37.0464789 C35.9149723,38.1791751 37.896488,37.1723341 39.25878,36.0396379 C40.6210721,34.9069417 42.2310536,34.0259558 42.974122,32.3898391 C43.7171904,31.2571429 42.974122,29.7468814 42.2310536,28.6141852 Z" id="路径" fill="#FFFFFF" fill-rule="nonzero" opacity="0.1"></path>
            <path d="M21.4251386,23.4541248 L20.310536,22.8248492 C19.3197782,22.4472838 18.3290203,22.1955735 17.2144177,22.0697184 C14.9852126,21.8180081 12.6321627,21.8180081 10.4029575,21.9438633 C8.04990758,21.9438633 6.06839187,21.9438633 4.08687616,23.0765594 C2.26320158,24.3127106 1.04639535,26.2820452 0.743068392,28.4883301 C0.371534196,30.376157 0.743068392,32.3898391 1.85767098,34.0259558 C3.71534196,36.4172033 6.81146026,37.2981892 9.65988909,36.165493 L10.155268,35.9137828 L10.5268022,35.158652 C10.8983364,34.5293763 12.012939,34.7810866 12.6321627,34.7810866 C14.1182994,34.6552315 15.6044362,34.4035212 17.090573,33.9001007 C20.805915,32.5156942 23.7781885,28.9917506 22.2920518,24.8385313 C22.1064469,24.3180565 21.8104869,23.8454268 21.4251386,23.4541248 L21.4251386,23.4541248 Z" id="路径" fill="#F7DDC4" fill-rule="nonzero"></path>
            <path d="M11.6414048,37.6757546 C12.2606285,37.5498995 11.5175601,35.9137828 11.0221811,34.9069417 L10.7744917,34.7810866 C11.2698706,34.5293763 12.1367837,34.6552315 12.6321627,34.6552315 C14.1182994,34.5293763 15.6044362,34.2776661 17.090573,33.7742455 C18.7076987,33.1826561 20.1253805,32.1348777 21.1774492,30.7537224 C17.9574861,30.376157 16.4713494,33.5225353 11.5175601,33.0191148 C9.57129629,33.0157246 7.62690256,33.1418496 5.69685767,33.3966801 C3.83918669,33.3966801 2.35304991,32.5156942 1.73382625,33.6483904 L1.85767098,33.9001007 C2.86249144,35.290099 4.38468687,36.2000435 6.06839187,36.4172033 L6.1922366,36.4172033 L7.30683919,36.5430584 L11.2698706,37.5498995 L11.6414048,37.6757546 L11.6414048,37.6757546 Z" id="路径" fill="#EACEB1" fill-rule="nonzero"></path>
            <path d="M21.4251386,23.4541248 L20.310536,22.8248492 C19.3197782,22.4472838 18.3290203,22.1955735 17.2144177,22.0697184 C14.9852126,21.8180081 12.6321627,21.8180081 10.4029575,21.9438633 C8.04990758,21.9438633 4.95378928,23.0765594 4.58225508,26.8522134 C3.96303142,34.0259558 14.7375231,34.1518109 17.4621072,33.5225353 C19.117257,33.2478291 20.5919777,32.3026181 21.5490137,30.9030635 C22.5060498,29.503509 22.8635442,27.7693173 22.5397412,26.0970826 L22.168207,24.8385313 C22.072829,24.3080915 21.8123517,23.8227978 21.4251386,23.4541248 L21.4251386,23.4541248 Z" id="路径" fill="#F8E9DB" fill-rule="nonzero" opacity="0.3"></path>
            <path d="M12.5083179,27.1039236 C12.5083179,26.3487928 12.7560074,25.7195172 13.2513863,25.2160967 C13.9067536,24.5343805 14.7915664,24.1297512 15.728281,24.0834005 L17.2144177,23.8316902 L21.3012939,23.4541248 L21.9205176,23.57998 C22.2920518,23.7058351 22.4158965,24.0834005 22.5397412,24.3351108 C22.7874307,24.9643864 22.9112754,25.7195172 22.7874307,26.3487928 L22.5397412,29.1176057 L22.4158965,29.4951711 C22.168207,29.8727365 21.5489834,29.9985916 21.1774492,29.9985916 C18.9116359,30.2662841 16.620729,30.223955 14.3659889,29.8727365 C13.1275416,29.369316 12.5083179,28.2366198 12.5083179,27.1039236 L12.5083179,27.1039236 Z" id="路径" fill="#5D509E" fill-rule="nonzero"></path>
            <path d="M5.69685767,19.8043261 L4.82994455,19.5526158 L4.08687616,19.5526158 L4.82994455,20.1818914 L5.07763401,20.1818914 L5.32532348,20.4336017 L5.69685767,20.3077466 L5.94454713,19.9301812 L5.94454713,19.8043261 L5.69685767,19.8043261 L5.69685767,19.8043261 Z M5.94454713,36.5430584 C7.67837338,36.5430584 9.41219963,37.0464789 11.1460259,37.6757546 L11.6414048,37.6757546 C12.2606285,37.5498995 11.5175601,35.9137828 11.0221811,34.9069417 C10.8983364,34.7810866 10.7744917,34.6552315 10.650647,34.7810866 L10.5268022,34.7810866 C9.78373383,35.9137828 6.43992606,36.4172033 5.94454713,36.5430584 L5.94454713,36.5430584 Z M47.4325323,44.4719316 L47.4325323,44.2202214 L47.4325323,44.4719316 Z M47.3086876,41.4514085 L47.3086876,40.1928572 L47.3086876,41.4514085 Z M47.6802218,37.1723341 C48.051756,37.0464789 48.6709797,37.0464789 48.7948244,36.6689135 L48.7948244,36.165493 C48.9656291,35.2085614 49.2569967,34.2779692 49.6617375,33.3966801 L50.9001848,30.7537224 C50.0458332,32.2668515 48.8591033,33.5589883 47.4325323,34.5293763 L47.1848429,37.2981892 L47.6802218,37.1723341 Z M47.3086876,42.9616701 L47.3086876,44.2202214 L47.3086876,42.9616701 Z M47.3086876,41.4514085 L47.3086876,42.7099598 L47.3086876,41.4514085 Z" id="形状" fill="#DDC1A8" fill-rule="nonzero"></path>
            <path d="M0.495378928,43.3392355 C0.882389357,42.3432886 1.4734052,41.4423737 2.22920518,40.6962777 C3.71534196,39.060161 5.94454713,38.3050302 8.04990758,37.4240443 C11.562979,36.0690341 15.221009,35.1396812 18.948244,34.6552315 C19.9390018,34.5293763 21.4251386,34.2776661 22.168207,35.0327968 C22.5397412,35.4103622 22.7874307,35.9137828 23.0351201,36.5430584 L24.025878,39.4377264 C24.2735675,40.1928572 24.2735675,41.0738431 24.2735675,41.8289739 C23.9020333,43.2133803 23.0351201,44.3460765 21.7966728,44.9753522 C19.5674677,46.1080483 17.2144177,47.1148894 14.8613678,47.9958753 C13.9944547,48.3734407 13.1275416,48.8768612 12.3844732,49.631992 C11.5092812,50.7748356 10.2110297,51.5027398 8.79297597,51.6456741 C6.93530499,52.0232395 5.07763401,51.8973843 3.34380776,51.1422536 C0.61922366,49.5061369 -0.123844732,46.1080483 0.495378928,43.3392355 L0.495378928,43.3392355 Z" id="路径" fill="#F7DDC4" fill-rule="nonzero"></path>
            <path d="M10.8983364,50.638833 C11.6414048,50.1354125 12.2606285,49.5061369 12.7560074,48.8768612 L12.8798521,48.7510061 L13.0036969,48.8768612 C13.4990758,49.2544266 12.1367837,50.3871228 12.2606285,51.0163984 L12.2606285,51.6456741 C12.1367837,51.8973843 11.8890943,51.7715292 11.6414048,51.7715292 C10.0314233,52.0232395 10.7744917,51.1422536 9.16451017,51.5198189 L10.8983364,50.638833 Z M21.5489834,43.3392355 C20.805915,43.3392355 12.1367837,46.8631791 10.8983364,47.2407445 C9.16451017,47.9958753 7.43068392,48.3734407 5.69685767,48.4992958 C3.71534196,48.4992958 3.21996303,48.6251509 2.60073937,49.3802817 L1.98151571,50.0095574 L3.34380776,51.0163984 C5.07763401,51.7715292 6.93530499,51.8973843 8.79297597,51.5198189 C9.78373383,51.5198189 10.650647,51.1422536 11.3937153,50.5129779 L12.3844732,49.5061369 C13.1275416,48.7510061 13.9944547,48.2475856 14.8613678,47.8700202 C17.2144177,46.9890342 19.5674677,45.9821932 21.7966728,44.849497 C22.5397412,44.4719316 23.1589649,43.842656 23.5304991,43.2133803 L21.5489834,43.3392355 L21.5489834,43.3392355 Z" id="形状" fill="#EACEB1" fill-rule="nonzero"></path>
            <path d="M24.025878,39.3118713 L23.0351201,36.4172033 C22.9112754,35.9137828 22.5397412,35.4103622 22.168207,34.9069417 C21.4251386,34.1518109 19.9390018,34.4035212 18.948244,34.5293763 C17.7097967,34.6552315 16.4713494,34.7810866 15.232902,35.158652 C13.3752311,35.5362174 11.5175601,36.165493 9.65988909,36.7947687 C6.06839187,39.060161 4.95378928,41.8289739 5.8207024,44.2202214 C6.81146026,47.2407445 11.5175601,47.9958753 16.4713494,46.737324 C18.3290203,45.9821932 20.0628466,45.8563381 21.7966728,44.849497 C23.0351201,44.2202214 23.9020333,43.0875252 24.2735675,41.7031188 C24.2735675,40.8221329 24.2735675,40.0670021 24.025878,39.3118713 Z" id="路径" fill="#F8E9DB" fill-rule="nonzero" opacity="0.3"></path>
            <path d="M15.728281,37.9274648 C16.5951941,37.1723341 17.5859519,36.5430584 18.7005545,36.4172033 L22.168207,35.6620725 L23.7781885,35.4103622 C24.1497227,35.5362174 24.5212569,36.0396379 24.8927911,36.6689135 C25.3881701,37.5498995 25.6358595,38.4308854 25.6358595,39.3118713 L25.5120148,40.3187123 L24.7689464,40.947988 L22.9112754,41.7031188 L19.9390018,42.5841047 C18.7005545,42.8358149 17.3382625,43.2133803 16.2236599,42.4582495 C15.728281,42.0806842 15.3567468,41.4514085 15.232902,40.8221329 C14.9978998,39.9397251 15.0859079,39.0006393 15.4805915,38.1791751 L15.728281,37.9274648 L15.728281,37.9274648 Z" id="路径" fill="#41439A" fill-rule="nonzero"></path>
            <path d="M25.5120148,38.05332 L15.4805915,40.947988 C15.6044362,41.4514085 15.9759704,41.954829 16.3475046,42.3323944 C17.3382625,43.2133803 18.8243993,42.8358149 20.0628466,42.4582495 L23.0351201,41.5772636 L24.8927911,40.8221329 L25.6358595,40.1928572 L25.7597043,39.1860162 L25.5120148,38.05332 Z" id="路径" fill="#FFFFFF" fill-rule="nonzero" opacity="0.4"></path>
            <path d="M22.9112754,51.1422536 L21.4251386,50.638833 C18.4528651,50.1354125 15.3567468,50.2612676 12.3844732,51.1422536 C9.90757856,51.8973843 5.32532348,53.533501 5.07763401,56.6798793 C4.95378928,57.9384306 5.32532348,59.0711268 6.06839187,60.0779678 C6.93530499,61.5882294 8.42144177,62.5950704 10.155268,62.8467807 C11.3937153,62.8467807 12.7560074,62.4692153 13.87061,61.9657948 C15.1090573,61.5882294 16.2236599,61.4623743 17.3382625,60.9589537 C19.8151571,60.0779678 21.9205176,58.4418511 23.2828096,56.3023139 C23.7781885,55.5471831 24.1497227,54.5403421 24.1497227,53.533501 C24.1497227,52.52666 23.6543438,51.6456741 22.9112754,51.1422536 Z" id="路径" fill="#F7DDC4" fill-rule="nonzero"></path>
            <path d="M18.3290203,59.1969819 C16.2236599,59.9521127 14.4898336,60.0779678 12.6321627,60.5813883 C10.7744917,61.0848089 8.9168207,59.0711268 7.80221811,61.8399396 C8.42144177,62.3433602 9.2883549,62.7209256 10.155268,62.7209256 C11.3937153,62.7209256 12.7560074,62.3433602 13.87061,61.8399396 C15.1090573,61.4623743 16.2236599,61.3365191 17.3382625,60.8330986 C19.3976375,60.1176099 21.2058335,58.805075 22.5397412,57.0574447 C20.9297597,58.0642857 19.3197782,58.8194165 18.3290203,59.1969819 L18.3290203,59.1969819 Z" id="路径" fill="#EACEB1" fill-rule="nonzero"></path>
            <path d="M22.9112754,51.1422536 L21.4251386,50.638833 C18.4528651,50.1354125 15.4805915,50.2612676 12.6321627,51.1422536 C10.650647,52.9042254 9.65988909,54.9179075 10.2791128,56.6798793 C11.0221811,59.322837 13.87061,61.9657948 19.6913124,59.9521127 C21.1884769,59.0407347 22.459613,57.792023 23.4066543,56.3023139 C23.9020333,55.5471831 24.2735675,54.5403421 24.2735675,53.533501 C24.1497227,52.6525151 23.6543438,51.6456741 22.9112754,51.1422536 L22.9112754,51.1422536 Z" id="路径" fill="#F8E9DB" fill-rule="nonzero" opacity="0.3"></path>
            <path d="M15.6044362,55.5471831 C16.0998152,56.5540242 17.090573,57.3091549 18.2051756,57.4350101 C18.948244,57.5608652 19.6913124,57.5608652 20.4343808,57.3091549 L23.0351201,56.6798793 C23.6543438,56.5540242 24.1497227,56.3023139 24.5212569,55.9247485 L24.8927911,55.2954729 C25.1404806,54.5403421 25.1404806,53.7852113 24.8927911,53.1559356 C24.7689464,52.4008049 24.3974122,51.5198189 23.6543438,51.3939638 L22.4158965,51.3939638 C21.1774492,51.5198189 20.0628466,52.0232395 18.8243993,52.2749497 C18.0833874,52.3949488 17.3700074,52.6508172 16.7190388,53.0300805 C16.0660326,53.3977326 15.6110294,54.0450779 15.4805915,54.7920523 L15.6044362,55.5471831 L15.6044362,55.5471831 Z" id="路径" fill="#005C9F" fill-rule="nonzero"></path>
            <path d="M9.65988909,12.1271631 L9.53604436,12.3788734 C9.41219963,13.1340041 9.65988909,13.8891349 10.155268,14.3925554 C10.8043637,14.9647039 11.5635282,15.3933084 12.3844732,15.6511067 L16.7190388,16.9096581 L17.2144177,16.9096581 L17.4621072,16.5320927 C17.9574861,16.2803824 18.3290203,15.902817 18.7005545,15.3993965 L19.0720887,14.6442657 L9.65988909,12.1271631 Z M12.5083179,27.481489 C12.6321627,28.4883301 13.2513863,29.369316 14.2421442,29.9985916 L15.728281,30.1244468 L21.0536044,30.1244468 C21.4251386,29.8727365 22.0443623,29.8727365 22.2920518,29.4951711 L22.4158965,29.1176057 L22.663586,26.6005031 L12.5083179,27.481489 L12.5083179,27.481489 Z M15.728281,55.6730383 C16.2236599,56.6798793 17.2144177,57.3091549 18.2051756,57.4350101 L20.4343808,57.4350101 L23.0351201,56.6798793 C23.6543438,56.6798793 24.1497227,56.3023139 24.5212569,55.9247485 L24.8927911,55.2954729 C25.1404806,54.6661972 25.1404806,54.0369216 25.0166359,53.4076459 L15.728281,55.6730383 L15.728281,55.6730383 Z" id="形状" fill="#FFFFFF" fill-rule="nonzero" opacity="0.3"></path>
        </g>
    </g>
</svg>