<svg xmlns="http://www.w3.org/2000/svg" xmlns:xlink="http://www.w3.org/1999/xlink" width="64" height="64" viewBox="0 0 64 64" fill="none"><defs><rect id="path_0" x="0" y="0" width="52" height="52" /><linearGradient id="linear_0" x1="10.356564919110983%" y1="35.4033047948208%" x2="78.07191382830771%" y2="84.44716439349618%" gradientUnits="objectBoundingBox"><stop offset="0" stop-color="#00DEEC" stop-opacity="1" /><stop offset="1" stop-color="#00FF90" stop-opacity="1" /></linearGradient><linearGradient id="linear_1" x1="18.798070009944503%" y1="38.63188025967122%" x2="117.5347573346579%" y2="106.2203854202282%" gradientUnits="objectBoundingBox"><stop offset="0" stop-color="#2C55FF" stop-opacity="1" /><stop offset="0.21" stop-color="#2E51FF" stop-opacity="1" /><stop offset="0.43" stop-color="#3444FF" stop-opacity="1" /><stop offset="0.65" stop-color="#3F30FF" stop-opacity="1" /><stop offset="0.88" stop-color="#4D13FF" stop-opacity="1" /><stop offset="1" stop-color="#5700FF" stop-opacity="1" /></linearGradient></defs><g opacity="1" transform="translate(0 0)  rotate(0 32 32)"><path id="路径 1" fill-rule="evenodd" style="fill:#FEFEFE" transform="translate(0 0)  rotate(0 32 32)" opacity="1" d="M0,64C21.33,64 42.67,64 64,64C64,42.67 64,21.33 64,0C42.67,0 21.33,0 0,0C0,21.33 0,42.67 0,64Z " /><g opacity="1" transform="translate(6 6)  rotate(0 26 26)"><mask id="bg-mask-0" fill="white"><use xlink:href="#path_0"></use></mask><g mask="url(#bg-mask-0)" ><path id="路径 1" fill-rule="evenodd" fill="url(#linear_0)" transform="translate(1.3004790893136062 15.91297436202233)  rotate(0 15.038119830343202 12.812434729687789)" opacity="1" d="M6,25.62L30.08,25.62L16.5,2.1C16.12,1.46 15.59,0.93 14.95,0.56C14.31,0.19 13.58,0 12.84,0C12.1,0 11.37,0.19 10.73,0.56C10.09,0.93 9.56,1.46 9.19,2.1L0.8,16.62C0.28,17.54 0,18.57 0,19.62C0,20.68 0.28,21.71 0.8,22.62C1.33,23.54 2.09,24.29 3,24.82C3.91,25.35 4.95,25.63 6,25.62Z " /><path id="分组 1" fill-rule="evenodd" style="fill:#FFFFFF" transform="translate(8.674900000000003 24.106793749999987)  rotate(0 5.397234375 5.410640625)" opacity="1" d="M10.79 1.53L6.21 1.53L6.21 0L4.59 0L4.59 1.53L0 1.53L0 3.15L1.88 3.15C2.3 4.71 3.09 6.15 4.18 7.35C3.01 8.23 1.68 8.88 0.26 9.26L0.7 10.82C2.4 10.37 4 9.58 5.38 8.48C6.76 9.58 8.35 10.37 10.06 10.82L10.5 9.26C9.08 8.88 7.75 8.23 6.58 7.35C7.68 6.16 8.47 4.71 8.89 3.15L10.79 3.15L10.79 1.53Z M7.21883 3.15242L3.56883 3.15242C3.94882 4.30242 4.56882 5.36242 5.39883 6.25242C6.21883 5.35242 6.83883 4.30242 7.21883 3.15242Z " /><path id="路径 4" fill-rule="evenodd" fill="url(#linear_1)" transform="translate(2.5890475000000004 9.099999999999998)  rotate(0 23.67055499658252 16.216820040571637)" opacity="1" d="M25.62,2.12L17.92,15.45L17.72,15.79C16.66,17.61 11.5,26.29 7.02,30.35C3.63,33.05 0,30.18 0,30.18C0.5,30.81 1.13,31.33 1.84,31.72C2.55,32.11 3.33,32.35 4.14,32.43L8.1,32.43L43.12,32.43C43.86,32.44 44.59,32.24 45.23,31.87C45.87,31.51 46.41,30.97 46.78,30.33C47.15,29.69 47.34,28.97 47.34,28.23C47.34,27.49 47.14,26.76 46.77,26.12L32.91,2.12C32.55,1.47 32.02,0.94 31.37,0.57C30.73,0.2 30.01,0 29.27,0C28.52,0 27.8,0.2 27.16,0.57C26.52,0.94 25.98,1.47 25.62,2.12Z " /><path id="分组 2" fill-rule="evenodd" style="fill:#FFFFFF" transform="translate(23.963956250000024 20.579081249999994)  rotate(0 7.869468749999999 7.16259375)" opacity="1" d="M15.74 14.33L8.97 0L6.77 0L0 14.33L2.67 14.33L4.32 10.84L11.41 10.84L13.06 14.33L15.74 14.33Z M10.4019 8.69726L7.87186 3.34726L5.34186 8.69726L10.4019 8.69726Z " /></g></g></g></svg>