<svg width="128" height="128" viewBox="0 0 128 128" fill="none" xmlns="http://www.w3.org/2000/svg">
<rect width="128" height="128" fill="white"/>
<rect width="128" height="128" fill="white"/>
<path fill-rule="evenodd" clip-rule="evenodd" d="M101.456 86.2239C110.906 80.2334 116 72.4537 116 64.5C116 56.5463 110.906 48.7666 101.456 42.7761C92.0557 36.8168 78.8236 33 64 33C49.1764 33 35.9443 36.8168 26.5437 42.7761C17.0938 48.7666 12 56.5463 12 64.5C12 72.4537 17.0938 80.2334 26.5437 86.2239C35.9443 92.1832 49.1764 96 64 96C78.8236 96 92.0557 92.1832 101.456 86.2239ZM64 100C94.9279 100 120 84.1061 120 64.5C120 44.8939 94.9279 29 64 29C33.0721 29 8 44.8939 8 64.5C8 84.1061 33.0721 100 64 100Z" fill="black"/>
<path fill-rule="evenodd" clip-rule="evenodd" d="M99.0359 84.3503C107.946 79.0216 113 71.9406 113 64.5C113 57.0594 107.946 49.9784 99.0359 44.6497C90.1666 39.3455 77.7842 36 64 36C50.2158 36 37.8334 39.3455 28.9641 44.6497C20.0539 49.9784 15 57.0594 15 64.5C15 71.9406 20.0539 79.0216 28.9641 84.3503C37.8334 89.6545 50.2158 93 64 93C77.7842 93 90.1666 89.6545 99.0359 84.3503ZM64 95C92.1665 95 115 81.3447 115 64.5C115 47.6553 92.1665 34 64 34C35.8335 34 13 47.6553 13 64.5C13 81.3447 35.8335 95 64 95Z" fill="black"/>
<path d="M39.6964 78C36.8308 78 34.2927 77.436 32.0821 76.3079C29.8715 75.1799 28.1385 73.5952 26.8831 71.554C25.6277 69.4858 25 67.0954 25 64.3827C25 62.1535 25.4094 60.1659 26.2281 58.4201C27.0469 56.6475 28.1658 55.13 29.5849 53.8676C31.0314 52.6053 32.6825 51.6518 34.5383 51.0072C36.4214 50.3357 38.4273 50 40.5561 50C42.1663 50 43.7082 50.1477 45.182 50.4432C46.6557 50.7386 47.8292 51.0878 48.7025 51.4906V57.8561H47.761C47.2152 56.2177 46.5602 54.9688 45.796 54.1094C45.0319 53.223 44.1722 52.6053 43.217 52.2561C42.2891 51.907 41.3066 51.7324 40.2695 51.7324C35.0023 51.7324 32.3687 55.4926 32.3687 63.0129C32.3687 65.4839 32.6279 67.7266 33.1465 69.741C33.6923 71.7554 34.5247 73.3535 35.6436 74.5353C36.7899 75.6902 38.25 76.2676 40.0239 76.2676C41.4703 76.2676 42.7803 75.9185 43.9538 75.2201C45.1274 74.495 46.1235 73.5415 46.9423 72.3597C47.7883 71.1779 48.3887 69.9022 48.7435 68.5324H49.685L49.3575 74.6561C48.4569 75.623 47.1879 76.4288 45.5504 77.0734C43.9129 77.6911 41.9616 78 39.6964 78Z" fill="black"/>
<path d="M53.9038 77.3957V76.4691C54.6952 76.4153 55.2684 76.2139 55.6231 75.8647C55.9779 75.5156 56.1553 74.683 56.1553 73.3669V54.6331C56.1553 53.317 55.9506 52.4844 55.5413 52.1353C55.1592 51.7592 54.4087 51.5578 53.2897 51.5309V50.6043H73.3898V56.2446H72.4483C72.3937 55.0897 71.9843 54.1496 71.2201 53.4245C70.4833 52.6993 69.337 52.3367 67.7814 52.3367H64.5065C63.9334 52.3367 63.4831 52.4844 63.1556 52.7799C62.8554 53.0753 62.7052 53.693 62.7052 54.6331V62.5698C62.9236 62.4086 63.1828 62.3012 63.4831 62.2475C63.8105 62.1938 64.1926 62.1669 64.6293 62.1669H68.6002C69.4189 62.1669 70.1012 61.9386 70.647 61.482C71.1929 61.0254 71.4794 60.3942 71.5067 59.5885H72.4483V66.4374H71.5067C71.4794 65.4436 71.1929 64.7722 70.647 64.423C70.1012 64.0739 69.4189 63.8993 68.6002 63.8993H64.7112C63.9743 63.8993 63.4558 64.0201 63.1556 64.2619C62.8554 64.5036 62.7052 64.9736 62.7052 65.6719V73.3669C62.7052 74.307 62.9099 74.9247 63.3193 75.2201C63.756 75.5156 64.5883 75.6633 65.8165 75.6633H69.7055C71.343 75.6633 72.6393 75.1799 73.5945 74.2129C74.5497 73.246 75.0819 72.0911 75.191 70.7482H76.1326L75.8051 77.3957H53.9038Z" fill="black"/>
<path d="M78.6659 50.6043H102V57.2518H101.058C100.895 55.8014 100.458 54.6197 99.7485 53.7065C99.0389 52.7933 97.8244 52.3367 96.1051 52.3367H93.6079V73.3669C93.6079 74.683 93.8126 75.5156 94.222 75.8647C94.6313 76.2139 95.3818 76.4153 96.4735 76.4691V77.3957H84.8064V76.4691C85.5979 76.4153 86.171 76.2139 86.5258 75.8647C86.8806 75.5156 87.058 74.683 87.058 73.3669V52.3367H84.5199C82.8551 52.3367 81.6543 52.7933 80.9174 53.7065C80.2078 54.6197 79.7712 55.8014 79.6074 57.2518H78.6659V50.6043Z" fill="black"/>
</svg>
