<svg xmlns="http://www.w3.org/2000/svg" xmlns:xlink="http://www.w3.org/1999/xlink" width="30" height="30" viewBox="0 0 30 30" fill="none"><defs><rect id="path_0" x="0" y="0" width="30" height="30" /><rect id="path_1" x="0" y="0" width="24" height="24" /></defs><g opacity="1" transform="translate(0 0)  rotate(0 15 15)"><mask id="bg-mask" fill="white"><use xlink:href="#path_0"></use></mask><g mask="url(#bg-mask)" ><path id="矩形 1" fill-rule="evenodd" transform="translate(0 0)  rotate(0 15 15)" opacity="1" d="M0,30L30,30L30,0L0,0L0,30Z " /><g opacity="1" transform="translate(3 2)  rotate(0 12 12)"><mask id="bg-mask" fill="white"><use xlink:href="#path_1"></use></mask><g mask="url(#bg-mask)" ><path id="路径 1" fill-rule="evenodd" style="fill:#3399FF" transform="translate(1.6200000000000008 7.02)  rotate(0 1.7999999999999998 7.74)" opacity="1" d="M3.6,15.48L3.6,2.64C2.4,1.76 1.2,0.88 0,0L0,14.76L3.6,15.48Z " /><path id="路径 2" fill-rule="evenodd" style="fill:#FF3333" transform="translate(1.3778169471258654 4.44816)  rotate(0 8.701091526437068 5.185920000000001)" opacity="1" d="M0.24,2.57C3.72,5.18 7.2,7.77 10.68,10.37C12.93,8.73 15.16,7.1 17.4,5.45L17.4,1.25C15.16,2.93 12.93,4.61 10.68,6.29C7.84,4.22 5.01,2.13 2.16,0.05C2.01,0.02 1.69,-0.04 1.32,0.05C1.14,0.1 0.79,0.21 0.48,0.53C0.36,0.66 0.04,1.04 0,1.61C-0.02,2.08 0.16,2.43 0.24,2.57Z " /><path id="路径 3" fill-rule="evenodd" style="fill:#339966" transform="translate(18.779999999999998 7.140000000000001)  rotate(0 1.8000000000000003 7.74)" opacity="1" d="M3.6,0C2.4,0.92 1.2,1.84 0,2.76L0,15.48C1.2,15.2 2.4,14.92 3.6,14.64L3.6,0Z " /><path id="路径 4" fill-rule="evenodd" style="fill:#FFCC00" transform="translate(18.779999999999998 4.619999999999998)  rotate(0 1.8600000000000005 2.5800000000000005)" opacity="1" d="M0,5.16C1.2,4.28 2.4,3.4 3.6,2.52C3.64,2.24 3.68,1.96 3.72,1.68C3.71,1.48 3.66,1.07 3.36,0.72C3.14,0.47 2.89,0.35 2.64,0.24C2.26,0.07 1.91,0.01 1.68,0C1.12,0.36 0.56,0.72 0,1.08L0,5.16Z " /></g></g></g></g></svg>