<svg xmlns="http://www.w3.org/2000/svg" xmlns:xlink="http://www.w3.org/1999/xlink" width="32" height="32" viewBox="0 0 32 32" fill="none"><defs><rect id="path_0" x="0" y="0" width="20" height="20" /></defs><g opacity="1" transform="translate(0 0)  rotate(0 16 15.999999999999998)"><path id="矩形 1" fill-rule="evenodd"  transform="translate(0 0)  rotate(0 16 15.999999999999998)" opacity="1" d="M0,32L32,32L32,0L0,0L0,32Z " /><g opacity="1" transform="translate(6 6)  rotate(0 10 10)"><mask id="bg-mask-0" fill="white"><use xlink:href="#path_0"></use></mask><g mask="url(#bg-mask-0)" ><path id="路径 1" fill-rule="evenodd" style="fill:#0364B8" transform="translate(5.833333339843797 0.8333333398437399)  rotate(0 6.25 1.8750000000000004)" opacity="1" d="M0.83,0C0.33,0 0,0.33 0,0.83L0,1.67L6.67,3.75L12.5,1.67L12.5,0.83C12.5,0.33 12.17,0 11.67,0L0.83,0Z " /><path id="路径 2" fill-rule="evenodd" style="fill:#0A2767" transform="translate(4.166666660156203 5.250000000000012)  rotate(0 7.916666669921875 4.666666669921874)" opacity="1" d="M7.92,9.33C8.08,9.33 8.25,9.33 8.33,9.25C8.33,9.25 8.42,9.25 8.42,9.17L15.58,5.08C15.75,5 15.83,4.83 15.83,4.67C15.83,4.5 15.75,4.33 15.58,4.25L8.42,0.17C8.42,0.17 8.33,0.17 8.33,0.08C8.17,0 8.08,0 7.92,0C7.75,0 7.58,0 7.5,0.08C7.5,0.08 7.42,0.08 7.42,0.17L0.25,4.25C0.08,4.33 0,4.5 0,4.67C0,4.83 0.08,5 0.25,5.08L7.42,9.17C7.42,9.17 7.5,9.17 7.5,9.25C7.67,9.33 7.75,9.33 7.92,9.33Z " /><path id="路径 3" fill-rule="evenodd" style="fill:#28A8EA" transform="translate(5.833333339843797 2.5)  rotate(0 6.25 6.25)" opacity="1" d="M0,0L0,5.83L6.67,12.5L12.5,12.5L12.5,5.83L6.67,0L0,0Z " /><path id="路径 4"  style="fill:#35B8F1" transform="translate(4.41666666015627 10.333333339843776)  rotate(0 7.625 4.3333333300781245)" opacity="1" d="" /><path id="路径 5" fill-rule="evenodd" style="fill:#50D9FF" transform="translate(12.5 2.4999999999999996)  rotate(0 2.9166666699218746 2.916666669921875)" opacity="1" d="M0,5.83L5.83,5.83L5.83,0L0,0L0,5.83Z " /><path id="路径 6" fill-rule="evenodd" style="fill:#0078D4" transform="translate(5.833333339843797 8.33333333984374)  rotate(0 3.333333330078125 4.16666666015625)" opacity="1" d="M0,8.33L6.67,8.33L6.67,0L0,0L0,8.33Z " /><path id="路径 7" fill-rule="evenodd" style="fill:#0A2767" transform="translate(4.4166666601562685 9.58333333984374)  rotate(0 7.625 3.3333333300781245)" opacity="0.5" d="M15.25,0.83L14.83,0.08C14.83,0.08 7.83,4 7.75,4.08L7.58,4.08C7.5,4.08 0.42,0 0.42,0L0,0.75L7.67,6.67L15.25,0.83Z " /><path id="路径 8" fill-rule="evenodd" style="fill:#1490DF" transform="translate(11.666666660156203 9.916666660156237)  rotate(0 4.166666669921875 4.583333339843749)" opacity="1" d="M0.42,4.67C0.25,4.67 0.08,4.58 0,4.58L2.33,7.83L8,9.17C8.25,9 8.33,8.75 8.33,8.5L8.33,0C8.33,0.17 8.25,0.33 8.08,0.42L1,4.5L0.83,4.58C0.67,4.67 0.58,4.67 0.42,4.67Z " /><path id="路径 9" fill-rule="evenodd" style="fill:#000000" transform="translate(11.750000000000021 14.250000000000021)  rotate(0 4.125 2.374999999999999)" opacity="0.1" d="M1.17,0L0.92,0.17L0.75,0.25C0.58,0.33 0.5,0.33 0.33,0.33C0.17,0.33 0.08,0.25 0,0.25L3.33,3.25L8,4.75C8.08,4.58 8.25,4.33 8.25,4.08L1.17,0Z " /><path id="路径 10" fill-rule="evenodd" style="fill:#28A8EA" transform="translate(4.166666660156203 9.916666660156238)  rotate(0 7.749999999999999 4.625)" opacity="1" d="M1.67,1.08L0.25,0.42C0.08,0.33 0,0.17 0,0L0,8.42C0,8.92 0.42,9.25 0.83,9.25L14.83,9.25C15.08,9.25 15.25,9.25 15.5,9.08L7.42,4.5L1.67,1.08Z " /><path id="路径 11" fill-rule="evenodd" style="fill:#000000" transform="translate(4.166666660156203 5)  rotate(0 4.166666669921875 5.833333330078125)" opacity="0.5" d="M1.67,0L1.67,3.75L0.25,4.58C0.08,4.67 0,4.75 0,4.92L0,11.67L7.17,11.67C7.75,11.67 8.33,11.08 8.33,10.5L8.33,1C8.33,0.42 7.92,0 7.33,0L1.67,0Z " /><path id="路径 12" fill-rule="evenodd" style="fill:#0078D4" transform="translate(0 4.16666666015626)  rotate(0 5.8333333300781245 5.833333339843749)" opacity="1" d="M11.67,10.75L11.67,1C11.67,0.42 11.25,0 10.75,0L1,0C0.42,0 0,0.42 0,1L0,10.67C0,11.25 0.42,11.67 1,11.67L10.67,11.67C11.25,11.67 11.67,11.25 11.67,10.75Z " /><path id="分组 1" fill-rule="evenodd" style="fill:#FFFFFF" transform="translate(2.666666660156249 6.666666660156259)  rotate(0 3.125000000000001 3.33333333984375)" opacity="1" d="M5.92 1.58C5.67 1.08 5.33 0.67 4.83 0.42C4.42 0.17 3.83 0 3.25 0C2.58 0 2 0.17 1.5 0.42C1 0.75 0.67 1.17 0.42 1.67C0.17 2.17 0 2.75 0 3.42C0 4 0.17 4.58 0.42 5.08C0.67 5.58 1 6 1.5 6.25C2 6.5 2.5 6.67 3.17 6.67C3.75 6.67 4.33 6.5 4.83 6.25C5.25 6 5.67 5.58 5.83 5C6.08 4.5 6.25 3.92 6.25 3.25C6.25 2.67 6.17 2.08 5.92 1.58Z M1.33333 3.33333C1.33333 3.75333 1.41333 4.16333 1.58333 4.50333C1.75333 4.83333 1.91333 5.08333 2.16333 5.33333C2.41333 5.50333 2.75333 5.58333 3.16333 5.58333C3.58333 5.58333 3.91333 5.50333 4.16333 5.25333C4.41333 5.08333 4.66333 4.75333 4.75333 4.41333C4.91333 4.16333 5.00333 3.75333 5.00333 3.33333C5.00333 2.91333 4.91333 2.58333 4.83333 2.25333C4.75333 1.91333 4.50333 1.66333 4.25333 1.41333C3.91333 1.16333 3.58333 1.08333 3.16333 1.08333C2.75333 1.08333 2.41333 1.16333 2.16333 1.41333C1.91333 1.58333 1.66333 1.91333 1.50333 2.25333C1.41333 2.50333 1.33333 2.91333 1.33333 3.33333Z " /></g></g></g></svg>