<svg xmlns="http://www.w3.org/2000/svg" xmlns:xlink="http://www.w3.org/1999/xlink" viewBox="0 0 307.2 348.1"><style><![CDATA[.m{fill:#9a4c18}.n{fill:#7f3e13}.o{fill:#fbfac4}.p{fill:#232323}.q{fill:#b85a1b}.r{fill:#e5895b}]]></style><path d="M288.1 110.9c2.2-3.5 4.2-7.2 5.8-11 .8-14.7-1.5-26.2-7.2-39.3-7.5 14.5-15.2 26.9-30.1 35.9l-4 2.4 20.4 31c14.3-5.2 15.2-6.7 24.4-18.6l-8.4-.3c-.3 0-.7 0-1-.1h.1z" class="n"/><path d="M258.8 100.2c9.6-5.7 17.9-13.7 27.1-28.6 2.7 8.9 3.9 18.1 3.6 27.4-2.4 5.5-5.5 10.7-9.3 15.3 2.8.8 5.8 1.1 8.7 1.1-4.2 5.6-8.6 7.2-14 9.2l-16.1-24.4z" class="q"/><path d="M258.8 100.2c9.6-5.7 17.9-13.7 27.1-28.6-.7 8.9-2.8 18.3-7.9 26 2.2-.8 4.3-1.8 6.4-2.9-3.5 8-8.8 15.2-15.4 21l-10.2-15.5z" fill="#ff9626"/><path d="M68.6 258.4c4 11.8 9.9 30 17.3 39.1 6 7.4 39.2 24 58.3 31.9 0 0 39.3 16.2 55.3 18.4 15.4 2.2 58.5-6.8 67.3-19.5 5.7-8.4 9.8-22.7 12.3-32.5 4.6-17.4 13.5-29.2 16.8-52.6 1.9-15-.9-30.3-8.1-43.7-1.6-13.9.6-27.6 2.7-41.3V157c-4.3-32.4-18.6-71.2-48.2-88.7C216 52.7 180.7 49.8 151 53.7c-32.3 4.4-62.6 18.3-86.9 40-20.5 18.4-36.1 43.8-35.4 72.1.6 26.7 10.6 51.8 26.2 73.1l13.5 19.5h.2z" class="m"/><path d="M152.2 59c-67 8.9-120.2 56.7-119 106.7.6 24.3 9.2 48.6 25.4 70.7l13.8 20c4.5 13.4 10.1 30.3 16.7 38.3 7.1 8.6 74.7 43.7 110.9 48.8 13.6 2 55.3-6.5 63-17.7 4.6-6.8 6.9-16.5 10.8-31.2C277.4 281 287 264 290 242.5c1.8-14.4-1-29-8-41.7-1.8-14.6.4-28.1 2.6-43.3-4.3-32.5-17-68.3-44.6-84.6-22.3-13.3-54.6-18.3-87.8-13.9z" class="r"/><linearGradient id="A" gradientUnits="userSpaceOnUse" x1="6899.9746" y1="-164.0385" x2="6827.9844" y2="-172.5385" gradientTransform="matrix(1 -2.000000e-02 -2.000000e-02 -1 -6740.4297 177.9)"><stop offset="0" stop-color="#fad395"/><stop offset="1" stop-color="#e5895b"/></linearGradient><path d="M152.2 59c15.3 13.5 27.1 35.1 27.1 57.7-45.1 6.2-55.9 10.5-76.3 23.9 8.5 9.8 14.8 22.8 18.6 38.1 13 .8 25.1 1.7 34.8 2.9l18.2 12.2c-26.6 7-34.9 6.2-45.4 11-2.6 14-2.6 32.5 4.6 48.7-17.6-1.3-24.5 7.5-21.2 19.7 15.2 15.4 26.6 24.4 45.1 36.7-7.1-3.1-11.1-3.9-18.7-6.7 18.4 16.9 36.9 28.1 61.3 40.3 13.6 1.9 55.3-6.5 63-17.7 4.6-6.8 6.9-16.5 10.8-31.2 3.6-13.6 13.2-30.6 16.2-52.1 1.8-14.4-1-29-8-41.7-1.8-14.6.4-28.1 2.6-43.3-4.3-32.5-17-68.3-44.6-84.6-22.5-13.3-54.8-18.3-88.1-14v.1z" fill="url(#A)"/><path d="M263.2 325.8c4.6-6.8 7-16.5 10.8-31.2 3.6-13.6 13.2-30.6 16.2-52.1 1.8-14.4-1-29-8-41.7 4.9 17.2 6.5 35.1 3.3 47.9-3.6 14.2-9.8 32-12.9 42.3-5.4 18-6.2 24.8-9.4 34.8h0z" class="o"/><path d="M44 211.4l4 7.8 32.8 5.1 8.3 8.4 31 7.7-8.2-23.5-67.9-5.4v-.1z" fill="#b26036"/><path d="M277.6 139c-7-21.7-11-37.3-31.7-49.6 16.1 17.9 17.3 29.6 22.1 52.5l9.6-2.9z" class="o"/><path d="M251.8 257.9c-7.4 3.2-13.4 3.8-24.9 2-26.1 8.8-62.4 9.5-79.8 5.2-5.5-1.2-17.1-8.2-22.8-8.5-4 1.3-7.8 3.3-11.2 5.8 2.2-.4 4.4-.7 6.6-.9-3.7 2.5-6.6 5.1-7.6 13.5-4.2-6.3-6.9-14.4-8.7-21l-23.9-23.9c13.1 26.4 12.6 51.2-5.4 43.6H74c1 2.7 2 5.3 3.2 7.9 2.6 6.1 5.5 11.8 8.9 15.8 7.6 9.2 44.2 21.1 57.9 27.5 5.6 2.6 16.9 7 23.7 9.6.9.6 3.8 2.4 4.7 2.9 9 5.3 18.6 9.2 27.3 10.4 15.4 2.2 58.5-6.8 67.3-19.5 5.7-8.4 9.8-22.7 12.3-32.5 4.6-17.4 13.5-29.2 16.8-52.6-9.6 11.1-18.7 15.5-44.3 14.7zm10.5 39.1c1.3-5.6 1.3-8.9 1.9-13.2-4.5 11.5-9.3 26-12.4 32.5-4.8 6.2-13.7 8.5-21.8 9.9 6-7.7 3.9-7.2 6.6-12.9-5.8 2.5-14.7 4.1-18.9 4.8-6.4 6.6-9.5 9.3-24.2 9.3-7.7-.1-31.2-16-45.8-37.3-2.9-2.6 6.7 16.7 3.8 13.5-8.8-9.8-15.9-22.3-22.2-37.9l-.1-.1h.1v.1c32.5 23.2 111.5 10 148.4-3.6-2.7 5.5-9.6 22.8-15.4 34.9z" fill="#a86d54" fill-opacity=".502"/><path d="M67.4 152.3c20.3-10.4 32.5-21.1 56.4-28 33.4-9.7 66.7-5.3 100.1-1.2l-92-64.4C96.7 61.2 77 70.6 48.2 90 27.3 104 23.1 107 1 116.9c5.5 2 12 4.7 17.5 6L0 131.4c5 1.5 11.7 3.9 16.7 4.7 6.8 22.9 10 39.7 15 62.5 26.5 16.6 47.1 35.7 71.5 55.5-9.8-23.4-11.6-41.8-12.9-66.7 1.7-8 4.8-11.1 11.1-16.5-13.8-1.1-22.1-3.4-34.9-10.2 1.7-3 4.7-5.2 8.9-7.2-2.7-.1-5.4-.4-8.1-1l.1-.2z" fill="#663010"/><path d="M205.4 115.4c-100.3-12.4-113 25.3-156.6 40 5.2.6 10.4.9 15.7 1-1.6 1.8-3 3.9-4 6.1 9.3 3.7 17.9 10.1 31.6 11.1-3.8 4-5.1 7.2-6.2 13.1 1 19.6 3.3 41.4 9.6 55.3-18.9-15.4-37.8-32.7-59.9-46.4-5.1-23-7.1-35.3-14.6-60.3 1.4-.9 2.8-2 3.9-3.2-4.7-.1-9.9-.7-12.7-1.6 7.2-3.1 14.2-6.6 21-10.6-7.1.2-14.1-1-20.7-3.4 40.3-18 57.9-48.3 118.5-52.6l74.3 51.6.1-.1z" class="n"/><path d="M205.4 115.4C117.9 104.7 91.6 128.5 58 144c-5.5.5-11.1.6-16.6.1 8.2-2.6 11.4-4.8 17-8.4-15 1.6-25.3 1.6-37.4-.2 1.4-.9 2.8-2 4-3.2-4.7-.1-9.9-.7-12.7-1.6 7.2-3.1 14.2-6.7 21-10.6-7.1.2-14.1-1-20.7-3.4C53 98.7 70.5 68.3 131.1 64l74.3 51.6v-.2zm-145 47.3c9.3 3.7 17.9 10.1 31.6 11.1-16.3 6.8-25.3 8.3-35.5 8-3.3-2.1-5.3-3.8-8.9-6.2 7.2 1.2 10.5 1.7 18.6 1.3-13.7-1.9-29.3-13.2-35.1-18.9 7.4 2.7 18.2 4.3 29.3 4.7h0z" class="q"/><linearGradient id="B" gradientUnits="userSpaceOnUse" x1="87.264742000001" y1="304.709085" x2="87.264742000001" y2="260.177913"><stop offset="0" stop-color="#b85a1b"/><stop offset="1" stop-color="#ff9701"/></linearGradient><path d="M12.6 116.5c26.1-11.7 42.7-28.6 67.5-40.1 30.6 3.2 58.2 16 81.8 30.1-31.3-2.6-58.6 1.8-90.4 16 8.7-8.9 12.1-11 26.1-18.2-22.8 5.5-35.9 13.7-55.7 18.4 5.7-6.8 9.1-11.6 16.4-19.9-17.2 8.3-28.4 12.7-45.7 13.7z" fill="url(#B)"/><path d="M87.1 173.9c-6.4 1.8-13 2.6-19.7 2.4-8.4-3.6-12.8-6.4-23.6-12.3 17.1 5.8 28.6 9 43.3 9.9z" fill="#ff9701"/><path d="M252.3 68.2c-3.8-16.5-10-32.4-19.5-46.8C222.1 11.6 209.4 5 197.3 0c6.1 7.5 11.1 17.2 14.7 24.8-25.8-14.7-49.9-17.8-76.5-17 12.8 10.6 16.4 15.5 24.5 26.1-31.3-2.1-62.2 7-90.1 18.6 18.1 8.6 35.6 18.3 52.4 29l24.1 15.6-6.3 8.6-8.6.7-27.8 10.7c28.9-6.3 61.4-4.6 90.4 3.4-6.1 3.1-12.6 5.7-19.2 7.7 21.2 1 35.9 1.7 59.8-1.3 15.8-7.6 29-25.1 37.6-44.4-1.9-19.3-9.2-33.5-18.2-45.7 1.6 12.2 1.2 20.2-1.8 31.6v-.2z" class="n"/><path d="M268.2 80.7c-.9-10.9-4.2-21.5-9.5-31.1.6 10-.9 18-4.1 24.3.1 9.1-1.1 16.9-2.3 24.7-2.4-34.5-11.9-57.8-23.1-74.9-8-6.8-13.7-10.8-21.5-14.7 4.8 7.8 9.5 14.9 12.6 21.3 4.2 4.1 7.8 8.7 10.7 13.7-23.3-21.6-53.4-31.3-84.3-32.6 21.6 18.9 32.7 39.6 36.9 56.1-7.5-13.3-11.8-20.7-19.6-28.7-22.8-1.7-57.1 4.5-82 13.9 25.2 12.2 50 29 64.4 44.2-16.2 3.4-29.8 11-42.7 20 28.4-10.2 65-9.1 103.3 2.4-4.1 1.8-7.8 3.8-11.9 5.3 10.1-.2 23.3-.1 38.6-2.1 14.4-8.5 23.6-17.5 34.5-41.8h0z" class="q"/><linearGradient id="C" gradientUnits="userSpaceOnUse" x1="150.214433000001" y1="278.041682" x2="145.837788000002" y2="319.607668"><stop offset="0" stop-color="#ff9701"/><stop offset="1" stop-color="#b85a1b"/></linearGradient><path d="M82 52.7c25.2 12.2 50 29 64.4 44.2-16.2 3.4-29.8 11-42.7 20 26.9-9.9 57.1-15.6 96-6.8-7.3-20.3-26.8-46.2-40.9-54.3 7.9 10.7 10.7 16.2 12.4 23.4-11.4-13.6-21.8-21.2-35.1-28.3-18-1.3-36.1-.7-54 1.7l-.1.1zm167.6 24.2c-4.1-23-11.8-39.9-20.5-53.1-8-6.8-13.7-10.8-21.5-14.7C221.8 19 227 32 231 44.1c-23.3-21.6-53.4-31.3-84.3-32.6 30.3 9 47.1 33.6 55.9 50.5-6.4-5.1-13.4-9.4-20.9-12.9 7.6 23.6 18.5 50.1 25.9 59.9-2.8-13.6-4.4-20.8-5.9-32.7 5.2 14.8 20.9 37.7 31.8 46.3 3-16 6.8-32.2 4.8-54.8 4.5 18 6.6 28.9 6.6 42.9 2.6-3.6 4.2-23.5 4.7-33.8h0zm9.1-27.3c.6 10-.9 18-4.1 24.3 0 4.4-.1 8.9-.6 13.3 2.7-3.6 4.7-7.7 6.1-12 1.2 1.7 2.1 3.6 2.8 5.5.9-8.4.7-16.7-4.1-31.1h-.1z" fill="url(#C)"/><path d="M247.6 79.2c-3.9-24.6-9.6-38.2-22.1-55.9 8.4 17.3 17.1 35.9 22.1 55.9zm-73.9 21.4c-5.7-2-11.5-3.7-18.4-3.8-10.4 1.3-19.4 4.4-28.4 7.6 15.3-2.9 30.8-5.2 46.8-3.8zm4.9-2c-10.4-22.5-26.9-34.9-42.8-44.5 18.6 16.6 28.9 26.8 42.8 44.5h0zm18.9-13.3c-2-12.2-6.8-23.7-14-33.8 4.3 12.1 8.2 23.9 14 33.8h0zm14.2-3.1c.2-6 0-12-.6-18-4.9-13.4-12.9-19.8-22.7-27.2 11.8 12.6 19.9 28.2 23.3 45.2h0zm25.5.9c.1-8.6-.4-17.3-1.6-25.8C228.4 44.8 215 34 198.7 25c19.7 17.3 31.4 28.4 38.5 58.1h0z" fill="#fde049"/><path d="M68.7 256.1l5.9-21.9c-.3-18.9-29.5-51-51.7-45.2-19.3 5-9.7 40.9-4.4 53.2 7.6 17.6 30.8 36.2 50.8 36 8.6-.1 15.4-4.6 15.5-12.9l-16.1-9.2z" class="m"/><linearGradient id="D" gradientUnits="userSpaceOnUse" x1="6773.1201" y1="-230.0361" x2="6766.6499" y2="-247.436" gradientTransform="matrix(1 -2.000000e-02 -2.000000e-02 -1 -6740.4297 177.9)"><stop offset="0" stop-color="#e5895b"/><stop offset="1" stop-color="#fad395"/></linearGradient><path d="M84.8 265.2c-2.2-10.7-5.7-21.1-10.3-31-5.7-13-29.9-45.4-50.3-40-13.2 3.5-7.9 30.5-1.2 46.1 11.6 26.9 52.5 44.4 61.8 25.1v-.2z" fill="url(#D)"/><linearGradient id="E" gradientUnits="userSpaceOnUse" x1="-217.6673" y1="-1101.3953" x2="-217.7573" y2="-1100.6653" gradientTransform="matrix(45.39 -1.09 1.09 45.25 11124.79 49818.8008)"><stop offset="0" stop-color="#fad395"/><stop offset="1" stop-color="#e5895b"/></linearGradient><path d="M65.8 219.9c-10.3-13.9-26.9-29.6-41.6-25.8-10.2 2.7-9.4 19.2-5.5 33.8 12.8 13.9 32.2 22.8 45.1 19 12.3-3.7 8.2-18.8 2-27h0z" fill="url(#E)"/><path d="M65.4 253.9c-8.7-2.9-12.7-16.9.4-15.6-5.8-15.1-22-34.1-35.2-30.9-10.6 2.6-5.3 39.1 24.2 44.8l10.6 1.7z" class="m"/><linearGradient id="F" gradientUnits="userSpaceOnUse" x1="-144.6297" y1="-1103.2729" x2="-144.9997" y2="-1102.473" gradientTransform="matrix(30.88 -0.74 0.94 39.06 5555.3604 43205.2773)"><stop offset="0" stop-color="#c76636"/><stop offset="1" stop-color="#e5895b"/></linearGradient><path d="M65.7 253.9c-15.3-3-12.8-18.4-4.5-18.2-5.6-10.8-18.6-28.2-30-25.1-7.7 2.1-1.8 22.9 2.8 30.5 8.7 14.7 25.5 20.1 31.7 12.8h0z" fill="url(#F)"/><path d="M261.3 242.3c-7.2-4.3-20.8-12.2-26.7-32.3 1.7 13.3 12.3 32.6 23.7 37.5 1.8-1 3-3 3-5.2z" class="o"/><path d="M261.3 242.3c-2.2 4.3-6.6 4.9-10.9 5-4.1.1-8.2-.9-12.4-1.4-3.4 1.8-5.2 4.9-6.2 8.9 7.6 1.4 16 2.1 23.3.6 5.4-2.3 8.7-9.2 6.2-13.1z" class="r"/><path d="M266.1 238.6c-13.4-4.9-27.4-19.4-31.8-34.8-.8-2.8-.8 1.1-.6 2.1 2.5 18.8 16.3 31.8 27.4 36.4 1.6 3.2-2.3 10.7-6.1 13.1 7-1.6 11.6-7.5 11-16.8h.1zm-76 5.4s23.3-22.4-2.2-53c0 0-34.8-12.7-66.7 14.1 0 0-6.1 15.5 6.6 33.2.1 0 22.9 18.2 62.3 5.7z" class="m"/><linearGradient id="G" gradientUnits="userSpaceOnUse" x1="160.44988" y1="216.30788" x2="167.112080000001" y2="277.55289"><stop offset="0" stop-color="#fad395"/><stop offset="1" stop-color="#e5895b"/></linearGradient><use xlink:href="#L" fill="url(#G)"/><path d="M292.3 220.9s8.6-47.6-18.8-52.1-30.3 9-34.6 21.4 5.7 42.2 5.7 42.2 17.9 2.2 47.7-11.5z" class="m"/><g class="r"><path d="M289.1 219.2s7.6-41.5-16.6-45.4-26.7 7.9-30.5 18.6 5 36.8 5 36.8 15.9 1.9 42.1-10zm-109.5-60.5l15.5 40-70.9-.9s-5.6 14-5.9-2.5 9.8-39.6 27.3-38.8 34 2.2 34 2.2z"/><path d="M238.2 189.8c-3.4-5-5.2-10.8-5.3-16.8-.3-13.8 10.4-25.4 24.1-27 11.9-1.4 26.9.3 29.4 17 4.2 28.2 1.4 24.1 1.4 24.1l-49.6 2.7z"/></g><path d="M289.8 210.8s8.5-45.8-18.9-50.2-30.3 8.6-34.6 20.5 5.7 40.6 5.7 40.6 18 2.3 47.8-10.9z" class="m"/><linearGradient id="H" gradientUnits="userSpaceOnUse" x1="271.465590000001" y1="181.453705" x2="189.47249" y2="244.1807"><stop offset="0" stop-color="#fad395"/><stop offset="1" stop-color="#e5895b"/></linearGradient><path d="M286.7 207.1s7.7-44.4-16.5-48.5-26.7 8.5-30.6 20 4.9 39.3 4.9 39.3 15.9 2.1 42.2-10.8z" fill="url(#H)"/><path d="M189.3 234.2s23.2-20.2-2.4-48.1c0 0-34.8-11.7-66.6 12.6 0 0-6.1 14 6.8 30.1 0 0 22.9 16.6 62.2 5.4z" class="m"/><linearGradient id="I" gradientUnits="userSpaceOnUse" x1="160.467125000001" y1="216.300235" x2="167.128825000001" y2="277.555245"><stop offset="0" stop-color="#fad395"/><stop offset="1" stop-color="#e5895b"/></linearGradient><use xlink:href="#L" x="-0.8" y="-10.3" fill="url(#I)"/><path d="M182.8 165.7s-6.1-20.3-25.4-18.4-37.2 8.6-47 22.1-9.9 46.6-9.9 46.6l9.1-8.1s-.2-22 19.5-32.6 31.3-12.1 40-10.7c4.5.8 9.1 1.2 13.7 1.1z" class="n"/><linearGradient id="J" gradientUnits="userSpaceOnUse" x1="183.386125000001" y1="167.96237" x2="121.386125000001" y2="164.86237"><stop offset="0" stop-color="#b85a1b"/><stop offset="1" stop-color="#7f3e13"/></linearGradient><path d="M173.6 158.1c-2.9-4.8-8.1-7.6-13.7-7.6-9.8-.2-40.3 6.9-49.4 30.3 0 0 15.8-12 31.1-17.1l-3.9-3.2c0-.1 19.2-9.2 35.9-2.4z" fill="url(#J)"/><defs><path id="K" d="M195.6 203.5s-11.2 21.8-74.7 7.9l1.8 18.9s28.6 16.6 73.7 1.7c0-.1 6.6-21.2-.8-28.5z"/><path id="L" d="M188.6 240.6s21.4-18.9-2.2-44.9c0 0-32-10.9-61.3 11.8 0 0-5.6 13.1 6.2 28.1 0 0 21.1 15.5 57.3 5z"/></defs><clipPath id="M"><use xlink:href="#K"/></clipPath><g clip-path="url(#M)"><path d="M135.3 233.7c10.1-.6 20.1 1.6 29.1 6.3 10.9.6 15.9-.2 23.7-2.1 11.9-10.8 9.7-33.7-2.5-44.2-24.7 1.7-52.1 8.5-58 12-3.6 8.3-2.6 24.5 7.7 28h0z" class="p"/><linearGradient id="N" gradientUnits="userSpaceOnUse" x1="6898.0703" y1="-211.3587" x2="6898.4805" y2="-223.0888" gradientTransform="matrix(1 -2.000000e-02 -2.000000e-02 -1 -6740.4297 177.9)"><stop offset="0" stop-color="#bdd6de"/><stop offset="1" stop-color="#fff"/></linearGradient><path d="M135.3 233.7c10.2.4 18.7 2.3 26.4 6.4 11.1-.6 16.5-1.6 23.5-4.4 8.9-9.7 6.9-27.2-2.3-36.7-10.6-2.4-43.9 2.7-50.8 10-4.6 7.8-3.4 18.9 3.2 24.7h0z" fill="url(#N)"/><path d="M190.3 213.3c-1.1-5.4-3.6-10.3-7.4-14.3-10.6-2.4-43.9 2.7-50.8 10-1.7 3-2.7 6.4-2.7 9.9 12 11 54.9 12.8 60.5-4 .1-.5.2-1.1.4-1.6h0z" fill="#fff"/><path d="M136.9 205.9c-7.8 7.3-8.2 19.4-.9 27.2.2.2.4.4.6.7 6.9.3 13.7 1.6 20.1 4.1 8-3.1 12.2-11.3 12.1-18.3-.2-7.9-5.9-17-16.1-18.5-5.5 1-10.8 2.6-15.8 4.8h0z" fill="#022740"/><radialGradient id="O" cx="-66.334" cy="-1125.4694" r=".68" gradientTransform="matrix(23.03 -0.55 0.48 19.84 2213.5698 22531.3613)" gradientUnits="userSpaceOnUse"><stop offset="0" stop-color="#33b4ff"/><stop offset="1" stop-color="#022740"/></radialGradient><path d="M136.1 230.4c1 1.4 2.2 2.6 3.5 3.7 5.1.4 10.1 1.4 14.9 3 4-1.1 7.4-3.7 9.5-7.3-5.3-7.6-15.7-9.5-23.3-4.2-1.8 1.2-3.4 2.9-4.6 4.8h0z" fill="url(#O)"/><path d="M149.5 208.7c-6.2 0-11.3 5-11.3 11.2s5 11.3 11.2 11.3 11.3-5 11.3-11.2v-.3c-.1-6.1-5.1-11-11.2-11z" fill="#151720"/><path d="M162.3 202.1c-5 .1-8.9 4.2-8.8 9.2s4.2 8.9 9.2 8.8 8.9-4.2 8.8-9.2-4.2-8.9-9.2-8.8z" fill="#fff"/></g><path d="M196.2 201.3s-12.3 14.7-44 12.3S122 210 122 210l.1 2.8s47 16.4 76.7-7.5l-2.6-4z" class="m"/><path d="M244.4 181.3c-4.8 11.5-2.9 26.7 2.7 40 8 4.7 26.3 2.9 33.7-3.7 3.6-12.7.5-32.1-8.4-41.3-8.5-9-23-6.9-28 5z" class="p"/><linearGradient id="P" gradientUnits="userSpaceOnUse" x1="7001.5166" y1="-200.4512" x2="7002.7266" y2="-209.3512" gradientTransform="matrix(1 -2.000000e-02 -2.000000e-02 -1 -6740.4297 177.9)"><stop offset="0" stop-color="#bdd6de"/><stop offset="1" stop-color="#fff"/></linearGradient><path d="M244.2 185.3c-4.3 10.1-3.4 27.6 1.7 39.2 8.2 1 25.3-2.4 30.8-7.9 3.3-11.1.7-27.6-7.3-35.7-7.8-7.9-20.8-6.1-25.2 4.4z" fill="url(#P)"/><path d="M244.2 185.3c-2.2 4.9-3 11.8-2.7 18.8 8.7 11.1 34.1 10.5 35-10.3-1.2-4.8-3.6-9.3-7-12.9-7.9-7.9-20.9-6.1-25.3 4.4z" fill="#fff"/><path d="M252.9 186.2c-9.3.2-14 9.9-13.8 17.8s5.5 17.3 14.7 17.1 14-9.9 13.8-17.8-5.6-17.3-14.7-17.1z" fill="#022740"/><radialGradient id="Q" cx="36.8702" cy="-1133.6602" r=".87" gradientTransform="matrix(17.28 -0.42 0.27 11.23 -79.0902 12962.21)" gradientUnits="userSpaceOnUse"><stop offset="0" stop-color="#33b4ff"/><stop offset="1" stop-color="#022740"/></radialGradient><path d="M243 213.2c2.4 4.1 6.3 6.7 10.6 6.6s8-2.9 10.3-7.1c-2.4-4-6.3-6.7-10.6-6.6s-8 2.9-10.3 7.1z" fill="url(#Q)"/><path d="M253 193.4c-4.5.1-8.1 4.8-8 10.5s4 10.2 8.5 10.1 8.1-4.8 8-10.5-3.9-10.3-8.5-10.1z" fill="#151720"/><path d="M262.1 190.6c-3.9.2-6.9 3.6-6.6 7.5.2 3.9 3.6 6.9 7.5 6.6 3.8-.2 6.7-3.4 6.6-7.2-.1-4-3.5-7-7.4-6.9h-.1z" fill="#fff"/><path d="M105.9 207.8l-82.5-6.5 9.6 7.8 42.8 7.3 7.4 7.3 30 5.3z" class="p"/><path d="M107.5 212.1l2 8.7-28.1-4-3.5-3-5.9-.9c-2.3-.6-7-1.3-9.8-4.8l45.3 4.1v-.1z" fill="#3c3c3c"/><linearGradient id="R" gradientUnits="userSpaceOnUse" x1="6942.7495" y1="-149.5455" x2="6947.5698" y2="-236.2555" gradientTransform="matrix(1 -2.000000e-02 -2.000000e-02 -1 -6740.4297 177.9)"><stop offset="0" stop-color="#fff"/><stop offset="1" stop-color="#fff" stop-opacity="0"/></linearGradient><path d="M214.7 196.1c-.8-3.5-3.4-5.2-6.9-5-28.9 1.2-65.9 7-93.3 15.9-2.2.8-3.7 2.7-3.9 5 53.9 1.3 88.9 16.4 104.9 25.1.2-.2.3-.4.4-.6 4.7-7.9 1-31.3-1.2-40.4h0zm87.8 14.5c.1-.4.2-.9.2-1.3.7-8.4-1.6-23.7-3.2-32.3-.5-2.5-2.8-4.2-5.3-3.9-19.1 1.6-38 5.3-55.7 12.7-3.4 1.4-3.6 4.2-3.1 7.3l.6 4.4c30.6-.2 50.5 6.5 66.5 13.1h0z" opacity=".6" fill="url(#R)"/><path d="M260.3 235.7c12.5-1.8 29-6.1 38.7-13.2 4.3-3.1 7.2-6.5 7.7-10.1 1.7-10.3-1.2-28.2-2.9-35.6-.2-.8 1.2-2.1 2-3.3 1.2-1.6.3-7.4-.9-9.1-26.2.6-49 4.6-70 13.7-2.6 1.3-5.1 3-7.3 4.9-3.1 2.2-7.1 2.7-10.6 1.3-4.9-2.2-7.3-1.8-12.2-1.6-34.8 1.2-78.8 9.4-108.5 20.3.1 3.1.6 7.5 3 10.1 1 1.1 6.4 1.3 6.8 2.9 2.5 9.1 5.1 17.4 8.9 23.6 6.9 11.4 19.5 12.9 32 13.1 27.8.5 68.4-5.9 73.1-14 4.6-7.9 3-26.5.2-40.9 3.2-3.6 6.8-4.5 10.8-2.4 1.1 6.7 2.4 14.8 4.8 22.1 4.4 13.2 9.9 20.1 24.6 18l-.2.2zm-47-39.3c2.7 11.7 5.2 32.5 1.3 39.2-4.3 7.3-62.4 14.1-83.6 9.4-11.8-2.6-15.7-17.7-18.9-31.8-.4-2.1.8-4.3 2.8-5 27-8.7 64.1-14.6 93-15.8 2.8-.1 4.7 1.1 5.4 3.9v.1zm25.7 9.5c-.9-4.5-1.6-9-2.1-13-.3-2.9-.2-4.8 2.3-5.8 17.4-7.3 36-10.9 55.3-12.6 1.8-.2 3.4 1 3.7 2.7 1.6 8.4 3.9 23.9 3.2 31.9-.2 2.5-2.1 4.9-4.9 7.3-9.9 7.9-31.5 13.2-43.4 13.7-3.8.2-6.7-2.8-8.8-6.9-2.9-5.6-4.5-13.2-5.3-17.3z" class="p"/><path d="M301 176.6c-.7-3.1-3.7-4.6-6.9-5-11-1.1-37.4 1.7-58.1 9.4 21.4-9.2 44-13.1 67-13.4 1.8 6.9-1.8 5-2 9h0zM219.7 194c-2.9-2.1-5.9-4.1-11.5-4.5-26.3-1.5-68.4 6.4-87.3 9 27.1-7.5 58.5-12.2 84-12.6 3.8-.1 6.1-.8 9.1.7 3.2 1.5 4.5 4.3 5.7 7.4zm84.2 15.8c-1.5 14.8-33.3 21.2-44.1 22-2.2.3-4.4.3-6.5.2 12.7-.5 47.3-8.2 50.6-22.2h0zm-103.7 33.9c-16.2 3.9-56.9 9.1-71.4 3.1 14.6 3.7 54.3.4 71.4-3.1z" fill="#3c3c3c"/><path d="M286.7 150.6s-5-15.2-27.1-12.9-28.4 16.1-27.8 32.4c0 0 9.2-19.9 30.5-18.3 17 1.3 24 8.8 24 8.8 1.5-3.2 1.7-6.8.4-10z" class="n"/><linearGradient id="S" gradientUnits="userSpaceOnUse" x1="291.875775" y1="149.941385" x2="248.375775" y2="147.766385"><stop offset="0" stop-color="#b85a1b"/><stop offset="1" stop-color="#7f3e13"/></linearGradient><path d="M281.4 150.1s-11.1-14.8-29.5-6.8c0 0-8.8 5.6-14.3 11.6 0-.1 22-15.3 43.8-4.8z" fill="url(#S)"/><path d="M152.5 265.3c-7.7-8.5-24.8-16.2-34.7-8.2 10.8-.6 25.4 3.6 34.7 8.2z" class="m"/><path d="M152.5 265.3c-12.2-7.1-23.2-11.2-34.7-8.2l34.7 8.2z" class="o"/><path d="M193.3 312.9c17.1 19.4 59.3 9.4 57.3-8.3l-57.3 8.3z" fill="#bd7447"/><linearGradient id="T" gradientUnits="userSpaceOnUse" x1="6959.0928" y1="-313.6784" x2="6953.4326" y2="-285.7785" gradientTransform="matrix(1 -2.000000e-02 -2.000000e-02 -1 -6740.4297 177.9)"><stop offset="0" stop-color="#fbfac4"/><stop offset="1" stop-color="#fad395"/></linearGradient><path d="M160.4 287.3c16.9 16.9 29 27.3 36.6 30 13.3 4.8 72.7-5.1 64.4-24.4l-16.2 5.5-84.8-11.1z" fill="url(#T)"/><path d="M271.8 266.6c-32.4 8.2-65.8 11.8-99.3 10.8-12-.8-28.6-5.8-34.9-9.9 1-.6 2.1-1.1 3.3-1.4-4.8-3.2-8.6-3.5-13.3-2.2 4.8.2 7.2 1.1 7.6 1.6.6.7-2.3 1.4-1.3 2.5 20.8 19.5 44.2 33.7 55.8 37.8 13.3 4.8 48.8-.7 71.6-12.9-3.9 1-7.8 1.6-11.8 2 1.3-7.9 4.3-15.4 8.7-22 4.8-1.5 9.3-3.6 13.6-6.3h0z" class="m"/><path d="M251.5 275.5c-3.2 5.8-5.3 12.2-6.4 18.8l-.2 1c-2.6.9-5.3 1.8-7.9 2.5-8.9 2.6-17.9 4.3-27.1 5.1-5.4.4-13.6.7-18.8-1.1-7.8-2.8-16.5-8.2-23.5-12.7-5.1-3.4-10-6.9-14.9-10.7 6.3 1.8 12.8 3 19.4 3.5h.2c26.7.7 53.2-1.4 79.2-6.4h0z" fill="#792936"/><linearGradient id="U" gradientUnits="userSpaceOnUse" x1="-278.1162" y1="-1112.4744" x2="-278.2362" y2="-1112.4844" gradientTransform="matrix(74.35 -1.79 0.53 21.91 21447.6602 24165.8008)"><stop offset="0" stop-color="#bdd6de"/><stop offset="1" stop-color="#fff"/></linearGradient><path d="M251.5 275.5c-.9 3.4-2.4 6.7-4.2 9.8-2.1 1.5-6.4 2.5-8.4 3.5 3.7 1 5.2 2.2 6.2 6.4-12.9 4.6-41.1 11-53.8 6.5-4.6-1.8-9-3.9-13.3-6.4 2.6-1.2 5.4-2.1 8.2-2.6-7.5-.8-16-3.1-19.5-5.6-1.5-1.1-4.6-4-5.4-6.7 3.6.8 7.3 1.3 11.1 1.5 26.5.6 53.1-1.5 79.1-6.4z" fill="url(#U)"/><linearGradient id="V" gradientUnits="userSpaceOnUse" x1="-235.3877" y1="-1117.4857" x2="-235.7278" y2="-1117.4357" gradientTransform="matrix(51.32 -1.23 0.42 17.63 12758.0908 19705.0898)"><stop offset="0" stop-color="#fff"/><stop offset="1" stop-color="#bdd6de"/></linearGradient><path d="M249.7 280.7c-.7 1.6-1.5 3.1-2.4 4.6-2.1 1.5-6.4 2.5-8.4 3.5 3.7 1 5.2 2.2 6.2 6.4-12 4.2-37.3 10.2-51 7.2-3.7-4.4-6-9.9-6.5-15.7 20.3-.6 39.6-1.7 62.1-6z" fill="url(#V)"/></svg>