<svg xmlns="http://www.w3.org/2000/svg" xmlns:xlink="http://www.w3.org/1999/xlink" width="32" height="32" viewBox="0 0 32 32" fill="none"><g opacity="1" transform="translate(0 0)  rotate(0 16.000000000000004 15.999999999999998)"><path id="矩形 1" fill-rule="evenodd" transform="translate(0 0)  rotate(0 16.000000000000004 15.999999999999998)" opacity="1" d="M0,32L32,32L32,0L0,0L0,32Z " /><path id="分组 1" fill-rule="evenodd" style="fill:#1DB954" transform="translate(6 6)  rotate(0 10 10)" opacity="1" d="M17.201 8.64562C17.451 8.19562 17.301 7.59562 16.851 7.34562C13.151 5.14562 7.30098 4.94562 3.75098 5.99562C3.30098 6.14562 3.00098 6.64562 3.15098 7.14562C3.30098 7.59562 3.80098 7.89562 4.30098 7.74562C7.35098 6.79562 12.701 6.99562 15.901 8.89562C16.351 9.14562 16.951 8.99562 17.201 8.64562Z M15.6045 10.6984C12.5045 8.79835 8.00452 8.24835 4.35452 9.34835C3.95452 9.44835 3.75452 9.89835 3.85452 10.2984C3.95452 10.6984 4.40452 10.8984 4.80452 10.7984C7.95452 9.79835 12.0545 10.2984 14.7545 11.9484C15.1045 12.1984 15.5545 12.0484 15.8045 11.6984C16.0545 11.3484 15.9045 10.8484 15.6045 10.6984Z M14.3476 13.6006C11.7476 12.0006 8.44761 11.6506 4.6476 12.5006C4.34761 12.6006 4.09761 12.9006 4.19761 13.2506C4.29761 13.5506 4.59761 13.8006 4.94761 13.7006C8.44761 12.9006 11.3976 13.2006 13.7476 14.6506C14.0476 14.8506 14.3976 14.7506 14.5976 14.4506C14.7476 14.1506 14.6976 13.7506 14.3476 13.6006Z M0 10C0 15.5 4.5 20 10 20C15.5 20 20 15.5 20 10C20 4.5 15.55 0 10 0C4.5 0 0 4.5 0 10Z " /></g></svg>