<svg width="128" height="128" viewBox="0 0 128 128" fill="none" xmlns="http://www.w3.org/2000/svg">
<rect width="128" height="128" fill="white"/>
<rect width="128" height="128" fill="white"/>
<path d="M27.1092 50.9679C27.1092 46.5496 30.6909 42.9679 35.1092 42.9679H43.1488C47.5671 42.9679 51.1488 46.5496 51.1488 50.9679L51.1488 65.7387C51.1488 67.9479 52.9397 69.7387 55.1488 69.7387C57.3579 69.7387 59.1488 67.9479 59.1488 65.7387L59.1488 50.9679C59.1488 48.0536 58.3697 45.3213 57.0083 42.9679H75.1885C79.6067 42.9679 83.1885 46.5496 83.1885 50.9679L83.1885 65.7387C83.1884 67.9479 84.9793 69.7387 87.1884 69.7387C89.3976 69.7387 91.1884 67.9479 91.1885 65.7387L91.1885 50.9679C91.1885 42.1313 84.025 34.9679 75.1885 34.9679H35.1092C26.2726 34.9679 19.1092 42.1314 19.1092 50.9679V65.7387C19.1092 67.9479 20.9 69.7387 23.1092 69.7387C25.3183 69.7387 27.1092 67.9479 27.1092 65.7387V50.9679Z" fill="#656565"/>
<path d="M27.8405 80.849C27.8405 83.6105 25.6019 85.849 22.8405 85.849C20.079 85.849 17.8405 83.6105 17.8405 80.849C17.8405 78.0876 20.079 75.849 22.8405 75.849C25.6019 75.849 27.8405 78.0876 27.8405 80.849Z" fill="#656565"/>
<path d="M100.574 77.9657C100.574 82.384 96.9922 85.9657 92.5739 85.9657H84.5343C80.116 85.9657 76.5343 82.384 76.5343 77.9657L76.5343 63.1949C76.5343 60.9857 74.7434 59.1949 72.5343 59.1949C70.3252 59.1949 68.5343 60.9857 68.5343 63.1949L68.5343 77.9657C68.5343 80.88 69.3134 83.6123 70.6748 85.9657H52.4946C48.0763 85.9657 44.4946 82.384 44.4946 77.9657L44.4946 63.1949C44.4946 60.9857 42.7038 59.1949 40.4946 59.1949C38.2855 59.1949 36.4946 60.9857 36.4946 63.1949L36.4946 77.9657C36.4946 86.8022 43.6581 93.9657 52.4946 93.9657H92.5739C101.41 93.9657 108.574 86.8022 108.574 77.9657V63.1949C108.574 60.9857 106.783 59.1949 104.574 59.1949C102.365 59.1949 100.574 60.9857 100.574 63.1949V77.9657Z" fill="#656565"/>
<path d="M99.8426 48.0846C99.8426 45.3231 102.081 43.0846 104.843 43.0846C107.604 43.0846 109.843 45.3231 109.843 48.0846C109.843 50.846 107.604 53.0846 104.843 53.0846C102.081 53.0846 99.8426 50.846 99.8426 48.0846Z" fill="#656565"/>
</svg>
