<svg width="128" height="128" viewBox="0 0 128 128" fill="none" xmlns="http://www.w3.org/2000/svg">
<rect width="128" height="128"/>
<path d="M42.8114 72.1056C50.24 79.2793 53.5504 87.9026 50.2055 91.3664C46.8605 94.8302 38.1269 91.8227 30.6983 84.6491C23.2698 77.4754 19.9594 68.8521 23.3043 65.3883C26.6493 61.9245 35.3829 64.932 42.8114 72.1056Z" fill="#0C92CE"/>
<path d="M65.1377 41.3127C55.2641 44.3389 46.1162 43.0599 44.7051 38.4561C43.2941 33.8523 50.1543 27.6669 60.0278 24.6407C69.9014 21.6145 79.0493 22.8935 80.4604 27.4973C81.8714 32.1012 75.0112 38.2865 65.1377 41.3127Z" fill="#ED3025"/>
<path d="M45.1933 50.1345C42.6882 60.1529 36.8705 67.3276 32.1991 66.1595C27.5277 64.9914 25.7716 55.923 28.2766 45.9045C30.7817 35.8861 36.5994 28.7114 41.2708 29.8795C45.9422 31.0476 47.6984 40.116 45.1933 50.1345Z" fill="#97D7EF"/>
<path d="M60.6428 85.9073C70.5185 82.888 79.6656 84.1734 81.0734 88.7782C82.4812 93.383 75.6167 99.5636 65.7411 102.583C55.8654 105.602 46.7183 104.317 45.3105 99.712C43.9027 95.1072 50.7672 88.9266 60.6428 85.9073Z" fill="#77A13E"/>
<path d="M81.1526 76.9645C83.8254 66.9895 89.7626 59.9135 94.4138 61.1598C99.0649 62.406 100.669 71.5027 97.9959 81.4777C95.3231 91.4527 89.3859 98.5287 84.7347 97.2825C80.0836 96.0362 78.4798 86.9395 81.1526 76.9645Z" fill="#F28093"/>
<path d="M84.5407 54.6221C76.9847 47.5829 73.5201 39.0203 76.8023 35.4971C80.0846 31.9738 88.8707 34.8241 96.4268 41.8633C103.983 48.9025 107.447 57.4651 104.165 60.9883C100.883 64.5116 92.0968 61.6613 84.5407 54.6221Z" fill="#FBB81B"/>
</svg>
