<svg xmlns="http://www.w3.org/2000/svg" xmlns:xlink="http://www.w3.org/1999/xlink" width="32" height="32" viewBox="0 0 32 32" fill="none"><g opacity="1" transform="translate(0 0)  rotate(0 16 16)"><path id="矩形 1" fill-rule="evenodd" style="fill:#FFFFFF" transform="translate(0 0)  rotate(0 16 16)" opacity="1" d="M0,32L32,32L32,0L0,0L0,32Z " /><g opacity="1" transform="translate(5 6.7089969817873225)  rotate(0 11 9.291003018212752)"><path id="分组 1" fill-rule="evenodd" style="fill:#1296DB" transform="translate(0 0)  rotate(0 9.92389687293124 9.289335496961222)" opacity="1" d="M8.54 0.05C5.15 0.49 2.27 2.38 0.88 5.08C0.24 6.31 0 7.3 0 8.67C0 9.98 0.25 11.01 0.84 12.17C1.41 13.3 2.31 14.37 3.34 15.15C3.63 15.38 3.87 15.57 3.87 15.58C3.87 15.61 3.27 18.29 3.21 18.5C3.17 18.66 3.23 18.64 4.91 17.77L6.66 16.88L7.28 17.03C8.24 17.25 8.84 17.32 9.92 17.32C11.07 17.32 11.7 17.24 12.73 16.98C14.63 16.5 16.23 15.57 17.55 14.2C18.68 13.03 19.36 11.77 19.71 10.22C19.88 9.46 19.89 7.99 19.74 7.22C18.98 3.44 15.59 0.59 11.22 0.05C10.66 -0.02 9.1 -0.01 8.54 0.05Z M11.6999 7.79707C12.2099 8.14707 13.0999 8.51707 13.9299 8.72707C14.6999 8.92707 14.7199 8.91707 15.0199 8.56707C15.1699 8.40707 15.4199 8.18707 15.5999 8.07707C15.8399 7.91707 15.9099 7.84707 15.9099 7.72707C15.9099 7.58707 15.8999 7.57707 15.5299 7.53707C14.6899 7.45707 13.2399 7.14707 12.7099 6.93707C12.5599 6.88707 12.5699 6.87707 13.1299 6.34707C13.4399 6.05707 13.8699 5.60707 14.0699 5.36707C14.3899 4.98707 14.4799 4.90707 14.6099 4.90707C14.8399 4.90707 15.0599 4.81707 15.0599 4.71707C15.0599 4.67707 14.7899 4.37707 14.4599 4.06707C14.1299 3.74707 13.8299 3.49707 13.7999 3.49707C13.7599 3.50707 13.6299 3.61707 13.4999 3.75707C13.3699 3.89707 13.1899 4.03707 13.1199 4.06707C12.9299 4.12707 9.61994 4.34707 8.72993 4.34707C8.35993 4.34707 8.04994 4.36707 8.04994 4.37707C8.04994 4.39707 8.14993 4.54707 8.26993 4.71707L8.47993 5.02707L8.81993 4.99707L9.15993 4.95707L9.39993 5.37707C9.68993 5.84707 10.0699 6.35707 10.3899 6.70707C10.5899 6.91707 10.5999 6.96707 10.5299 7.02707C10.3899 7.17707 9.21994 7.84707 8.40993 8.26707C7.95994 8.48707 7.59994 8.67707 7.59994 8.69707C7.60994 8.71707 7.63994 8.77707 7.67993 8.82707C7.74994 8.91707 7.79993 8.91707 8.50994 8.73707C9.55993 8.46707 10.2799 8.21707 10.9199 7.90707L11.4699 7.63707L11.6999 7.79707Z M6.98114 4.00593L5.45114 4.00593L5.45114 5.47593L6.98114 5.47593L6.98114 4.74593L6.98114 4.00593Z M6.80926 7.00253L3.18926 7.00253L3.18926 7.90253L5.61926 7.90253L5.61926 13.6225L6.80926 13.6225L6.80926 10.3125L6.80926 7.00253Z M8.77267 11.5633C8.28267 11.5733 7.88267 11.6133 7.88267 11.6333C7.89267 11.6533 8.00267 11.7933 8.15267 11.9633L8.42267 12.2533L9.41267 12.2033C9.95267 12.1733 10.4927 12.1433 10.6127 12.1433L10.8327 12.1433L10.7927 13.3633C10.7527 14.4633 10.7627 14.5833 10.8427 14.6133C10.9727 14.6533 11.6227 14.4933 12.0027 14.3233L12.3127 14.1833L12.2927 13.1233L12.2627 12.0633L13.1727 12.0133C13.6627 11.9933 14.4727 11.9533 14.9527 11.9333L15.8227 11.8933L15.4627 11.5133C15.2127 11.2533 15.0727 11.1333 15.0127 11.1533C14.8427 11.2133 12.9527 11.4133 12.6027 11.4133L12.2627 11.4133L12.2927 10.7833L12.3227 10.1433L13.5327 10.1133C14.5927 10.0933 14.7527 10.0733 14.7727 9.99333C14.7927 9.86333 14.1927 9.32333 14.0627 9.35333C14.0027 9.37333 13.5827 9.41333 13.1227 9.45333L12.2827 9.52333L12.3227 9.09333L12.3627 8.64333L12.1427 8.54333C12.0227 8.47333 11.7127 8.36333 11.4527 8.28333C11.1927 8.20333 10.9427 8.13333 10.9027 8.13333C10.8427 8.13333 10.8227 8.26333 10.8227 8.85333L10.8227 9.58333L10.2227 9.62333C9.89267 9.64333 9.34267 9.66333 9.00267 9.66333C8.67267 9.66333 8.39267 9.67333 8.39267 9.69333C8.39267 9.71333 8.49267 9.87333 8.62267 10.0633C8.78267 10.3033 8.88267 10.3933 8.94267 10.3733C8.99267 10.3533 9.33267 10.3233 9.69267 10.3133C10.0527 10.2933 10.4527 10.2633 10.5827 10.2433L10.8227 10.2233L10.8227 11.4533L10.2427 11.4933C9.92267 11.5133 9.26267 11.5333 8.77267 11.5633Z " /><path id="分组 2" fill-rule="evenodd" style="fill:#D81E06" transform="translate(9.72045281910553 4.751155863872093)  rotate(0 6.139773590447235 6.915425086276705)" opacity="1" d="M0 0.17L0.43 0.58C0.66 0.8 1.05 1.12 1.27 1.28L1.69 1.58L2 1.28C2.32 0.96 3.03 0.11 3.03 0.04C3.03 0.01 2.97 0 2.9 0C2.83 0 2.35 0.04 1.84 0.08C1.32 0.11 0.7 0.15 0.45 0.15L0 0.17Z M10.2632 13.8218C10.2632 13.7718 10.1732 13.3518 10.0632 12.8718L9.86318 12.0018L10.0532 11.8618C10.8032 11.2718 11.2632 10.7618 11.6232 10.1218C12.4332 8.71178 12.4932 7.04178 11.7932 5.62178C11.6632 5.36178 11.5232 5.10178 11.4632 5.03178L11.3532 4.89178L11.2632 5.42178C10.8032 7.92178 9.21318 10.2218 6.85318 11.7718C6.41318 12.0518 5.29318 12.6418 4.84318 12.8218C4.58318 12.9218 4.68318 12.9718 5.40318 13.0518C6.09318 13.1318 6.77318 13.0918 7.59318 12.9218L8.16318 12.8118L9.21318 13.3518C9.91318 13.7218 10.2632 13.8718 10.2632 13.8218Z " /></g></g></svg>