<svg xmlns="http://www.w3.org/2000/svg" xmlns:xlink="http://www.w3.org/1999/xlink" width="30" height="30" viewBox="0 0 30 30" fill="none"><defs><rect id="path_0" x="0" y="0" width="30" height="30" /></defs><g opacity="1" transform="translate(0 0)  rotate(0 15 15)"><mask id="bg-mask" fill="white"><use xlink:href="#path_0"></use></mask><g mask="url(#bg-mask)" ><path id="矩形 1" fill-rule="evenodd" transform="translate(0 0)  rotate(0 15 15)" opacity="1" d="M0,30L30,30L30,0L0,0L0,30Z " /><path id="路径 1" fill-rule="evenodd" style="fill:#0E73FF" transform="translate(5.848928403156021 6.428571428571429)  rotate(0 9.151071596843973 8.571428571428571)" opacity="1" d="M2.72,0.29L0.01,16.73C-0.03,16.94 0.13,17.14 0.33,17.14L6.81,17.14L7.32,16.97L10.33,16.97L10.75,17.14L15.74,17.14C15.9,17.14 16.04,17.02 16.07,16.85L18.3,3.33L14.8,0L3.05,0C2.89,0 2.75,0.12 2.72,0.29Z " /><path id="路径 2" fill-rule="evenodd" style="fill:#85B2F1" transform="translate(12.999992949859621 13.33504624720982)  rotate(0 2.0000070501403746 1.6649537527901788)" opacity="1" d="M4,3.33L0.49,0L0.01,2.91C-0.03,3.13 0.13,3.33 0.33,3.33L4,3.33Z " /><path id="路径 3" fill-rule="evenodd" style="fill:#FFFFFF" transform="translate(7.690647476562489 6.783144910714285)  rotate(0 7.3093525234375 8.216855089285714)" opacity="1" d="M4.34,16.43L8.28,16.43L9.81,7.21L14.46,7.21L14.62,7.2L7.06,0L6.4,3.98L0,4L2.78,7.21L5.87,7.21L4.34,16.43Z " /></g></g></svg>