<svg xmlns="http://www.w3.org/2000/svg" xmlns:xlink="http://www.w3.org/1999/xlink" width="32" height="32" viewBox="0 0 32 32" fill="none"><defs><rect id="path_0" x="0" y="0" width="22" height="19.555555555555554" /></defs><g opacity="1" transform="translate(0 0)  rotate(0 16 15.999999999999998)"><path id="矩形 1" fill-rule="evenodd" style="fill:#FFFFFF" transform="translate(0 0)  rotate(0 16 15.999999999999998)" opacity="1" d="M0,32L32,32L32,0L0,0L0,32Z " /><g opacity="1" transform="translate(5 6.222222222222172)  rotate(0 11 9.777777777777777)"><mask id="bg-mask-0" fill="white"><use xlink:href="#path_0"></use></mask><g mask="url(#bg-mask-0)" ><path id="分组 1" fill-rule="evenodd" style="fill:#DB542F" transform="translate(0.10374106505816094 2.3222222222222424)  rotate(0 10.94812946747094 7.836097861079519)" opacity="1" d="M4.17 5.38C4.52 3.4 4.47 3.42 5.76 4.62C6.84 5.65 7.08 5.74 8.16 5.74C9.21 5.74 9.43 5.65 10.29 4.77C10.8 4.23 11.39 3.79 11.53 3.79C11.7 3.79 11.92 4.16 12 4.57C12.36 6.18 13.59 7.94 14.37 7.94C14.78 7.94 15.3 7.11 15.3 6.38C15.3 4.16 13.71 1.81 11.43 0.68C10.21 0.1 9.75 0 7.84 0C5.93 0 5.47 0.1 4.42 0.66C2.9 1.44 1.27 3.18 0.56 4.72C-0.2 6.36 -0.18 9.31 0.58 11C1.58 13.18 3.42 14.74 5.79 15.4C7.65 15.91 9.87 15.72 14.32 14.67C17.5 13.91 18.43 13.79 20.01 13.86C21.04 13.93 21.9 13.93 21.9 13.88C21.9 13.47 20.72 11.66 19.99 10.93C18.5 9.44 17.45 9.04 14.93 9.04C12.41 9.04 12.02 9.22 9.26 11.27L7.5 12.59L6.45 11.56C5.64 10.76 3.78 9.56 2.9 9.26C2.85 9.26 3.1 8.6 3.42 7.8C3.73 7.02 4.08 5.92 4.17 5.38Z M18.4951 10.6811L17.7151 10.0711L18.0051 10.6811C18.2251 11.1911 18.2051 11.4611 17.9151 12.0711L17.5451 12.8311L20.5051 12.8311L19.8951 12.0511C19.5751 11.6311 18.9351 11.0011 18.4951 10.6811Z " /><g opacity="1" transform="translate(5.386827883549486 10.266666666666687)  rotate(0 2.9267818205560476 1.8247058823529407)"><path id="路径 3" fill-rule="evenodd" style="fill:#DB542F" transform="translate(2.1932766681725813 2.444444444444443)  rotate(0 0.6968513917839895 0.6024836601307192)" opacity="1" d="M1.22,0.86C1.61,0.39 1.32,0 0.58,0C-0.05,0 -0.2,0.44 0.29,0.93C0.68,1.32 0.85,1.3 1.22,0.86Z " /><path id="路径 4" fill-rule="evenodd" style="fill:#DB542F" transform="translate(0 0.08209435148588007)  rotate(0 0.7956725046709204 0.5626380570292707)" opacity="1" d="M1.56,0.8C1.41,0.41 0.24,-0.16 0.02,0.04C-0.06,0.14 0.14,0.41 0.46,0.68C1.12,1.21 1.75,1.29 1.56,0.8Z " /><path id="路径 5" fill-rule="evenodd" style="fill:#DB542F" transform="translate(4.390949894228292 0)  rotate(0 0.7313068734419014 0.6069757244519437)" opacity="1" d="M1,0.98C1.52,0.68 1.64,0 1.17,0C0.83,0 0,0.73 0,1.03C0,1.3 0.42,1.27 1,0.98Z " /></g><path id="路径 6" fill-rule="evenodd" style="fill:#B84528" transform="translate(2.0612476413014744 7.088888888888879)  rotate(0 5.403537825540018 4.644444444444443)" opacity="1" d="M6.32,7.09C6.15,7.09 5.49,6.7 4.86,6.21C4.2,5.72 3.22,5.11 2.68,4.89L1.68,4.45L1.87,3.01C2,2.22 2.14,1.22 2.22,0.78C2.34,0.15 2.29,0 1.92,0C1.56,0 1.53,0.05 1.85,0.24C2.17,0.44 2.17,0.49 1.83,0.49C1.58,0.49 1.21,1.08 0.8,2.15C-0.33,5.06 -0.35,4.96 1.29,5.74C2.14,6.16 3.24,7.02 4.05,7.87C4.78,8.65 5.42,9.29 5.47,9.29C5.52,9.29 6.4,8.48 7.42,7.5C8.45,6.53 9.67,5.48 10.11,5.16C10.55,4.84 10.87,4.55 10.8,4.47C10.65,4.3 8.52,5.52 7.5,6.38C7.01,6.77 6.49,7.09 6.32,7.09Z " /></g></g></g></svg>