<svg xmlns="http://www.w3.org/2000/svg" xmlns:xlink="http://www.w3.org/1999/xlink" width="30" height="30" viewBox="0 0 30 30" fill="none"><defs><rect id="path_0" x="0" y="0" width="30" height="30" /><rect id="path_1" x="0" y="0" width="22" height="22" /></defs><g opacity="1" transform="translate(0 0)  rotate(0 15 15)"><mask id="bg-mask" fill="white"><use xlink:href="#path_0"></use></mask><g mask="url(#bg-mask)" ><path id="矩形 1" fill-rule="evenodd"  transform="translate(0 0)  rotate(0 15 15)" opacity="1" d="M0,30L30,30L30,0L0,0L0,30Z " /><g opacity="1" transform="translate(4 4)  rotate(0 11 11)"><mask id="bg-mask" fill="white"><use xlink:href="#path_1"></use></mask><g mask="url(#bg-mask)" ><path id="路径 1" fill-rule="evenodd" style="fill:#4E91F5" transform="translate(3.6666666738281237 14.666666673828125)  rotate(0 9.166666663085937 3.2083333261718763)" opacity="1" d="M14.67,6.42L18.33,0L3.67,0L0,6.42L14.67,6.42Z " /><path id="路径 2" fill-rule="evenodd" style="fill:#FFD550" transform="translate(7.333333326171876 1.833333326171875)  rotate(0 7.3333333369140625 6.416666673828124)" opacity="1" d="M14.67,12.83L7.33,0L0,0L7.33,12.83L14.67,12.83Z " /><path id="路径 3" fill-rule="evenodd" style="fill:#23AE6F" transform="translate(0 1.8333333261718758)  rotate(0 5.5 9.625)" opacity="1" d="M3.67,19.25L11,6.42L7.33,0L0,12.83L3.67,19.25Z " /></g></g></g></g></svg>