<svg width="128" height="128" viewBox="0 0 128 128" fill="none" xmlns="http://www.w3.org/2000/svg">
<rect width="128" height="128" fill="white"/>
<rect width="128" height="128" fill="#4483E0"/>
<path d="M65.1561 41.4039C65.1561 40.257 65.66 40.0467 65.99 39.8451C71.9794 36.1874 90.1827 31.3211 93.3579 30.6768C98.7621 29.5802 99 31.0969 99 33.9519V87.1283C99 87.8216 98.5752 88.4414 97.9344 88.6938C97.8921 88.7104 97.8533 88.7219 97.8093 88.7334C96.6924 89.0251 80.5303 93.2737 70.4844 97.4424C67.6188 98.6315 65.1561 98.1621 65.1561 93.8025V41.4039Z" fill="white"/>
<path d="M53.2218 41.3736C53.2218 39.6112 54.6505 38.1824 56.4129 38.1824C58.1753 38.1824 59.6041 39.6112 59.6041 41.3736V61.3232C59.6041 63.0856 58.1753 64.5143 56.4129 64.5143C54.6505 64.5143 53.2218 63.0856 53.2218 61.3232V41.3736Z" fill="white"/>
<path d="M53.2218 74.864C53.2218 73.1016 54.6505 71.6729 56.4129 71.6729C58.1753 71.6729 59.6041 73.1016 59.6041 74.864V94.8136C59.6041 96.576 58.1753 98.0047 56.4129 98.0047C54.6505 98.0047 53.2218 96.576 53.2218 94.8136V74.864Z" fill="white"/>
<path d="M29 33.1865C29 31.4241 30.4287 29.9954 32.1911 29.9954C33.9536 29.9954 35.3823 31.4241 35.3823 33.1865V63.9016C35.3823 65.664 33.9536 67.0927 32.1911 67.0927C30.4287 67.0927 29 65.664 29 63.9016V33.1865Z" fill="white"/>
<path d="M29 76.077C29 74.3146 30.4288 72.8859 32.1912 72.8859C33.9536 72.8859 35.3823 74.3146 35.3823 76.077V86.5861C35.3823 88.3485 33.9536 89.7773 32.1912 89.7773C30.4288 89.7773 29 88.3485 29 86.5861V76.077Z" fill="white"/>
<path d="M41.2876 60.1239C41.2876 58.3615 42.7163 56.9328 44.4787 56.9328C46.2411 56.9328 47.6698 58.3615 47.6698 60.1239V90.839C47.6698 92.6014 46.2411 94.0301 44.4787 94.0301C42.7163 94.0301 41.2876 92.6014 41.2876 90.839V60.1239Z" fill="white"/>
<path d="M41.2876 37.1208C41.2876 35.3584 42.7163 33.9296 44.4787 33.9296C46.2411 33.9296 47.6699 35.3584 47.6699 37.1208V47.6299C47.6699 49.3923 46.2411 50.821 44.4787 50.821C42.7163 50.821 41.2876 49.3923 41.2876 47.6299V37.1208Z" fill="white"/>
</svg>
